<svg xmlns="http://www.w3.org/2000/svg" viewBox="0 0 800 1100" width="800" height="1100" font-family="Trebuchet MS, Arial, sans-serif"><defs><linearGradient id="sk" x1="0" y1="0" x2="0" y2="1"><stop offset="0" stop-color="#7a2a05"/><stop offset="1" stop-color="#f59e0b"/></linearGradient><linearGradient id="pn" x1="0" y1="0" x2="0" y2="1"><stop offset="0" stop-color="#05060d" stop-opacity="0"/><stop offset=".12" stop-color="#05060d" stop-opacity=".88"/><stop offset="1" stop-color="#05060d" stop-opacity=".96"/></linearGradient></defs><rect width="800" height="1100" fill="url(#sk)"/><circle cx="400" cy="300" r="160" fill="#FFD54A" opacity=".9"/><path d="M0 430 q50 -20 100 0 t100 0 q50 -20 100 0 t100 0 q50 -20 100 0 t100 0 q50 -20 100 0 t100 0 L800 630 L0 630 Z" fill="#7c2d12" opacity="0.9"/><path d="M0 470 q50 -20 100 0 t100 0 q50 -20 100 0 t100 0 q50 -20 100 0 t100 0 q50 -20 100 0 t100 0 L800 670 L0 670 Z" fill="#431407" opacity="1"/><path d="M80 570 Q101.6 462 86 354" stroke="#2a0f04" stroke-width="9.6" fill="none" stroke-linecap="round"/><path d="M86 354 Q2 294 -58 378" stroke="#2a0f04" stroke-width="7.199999999999999" fill="none" stroke-linecap="round"/><path d="M86 354 Q170 294 230 378" stroke="#2a0f04" stroke-width="7.199999999999999" fill="none" stroke-linecap="round"/><path d="M86 354 Q38 246 -16 318" stroke="#2a0f04" stroke-width="7.199999999999999" fill="none" stroke-linecap="round"/><path d="M86 354 Q134 246 188 318" stroke="#2a0f04" stroke-width="7.199999999999999" fill="none" stroke-linecap="round"/><path d="M86 354 Q26 330 -34 420" stroke="#2a0f04" stroke-width="7.199999999999999" fill="none" stroke-linecap="round"/><path d="M86 354 Q146 330 206 420" stroke="#2a0f04" stroke-width="7.199999999999999" fill="none" stroke-linecap="round"/><path d="M720 575 Q743.4 458 726.5 341" stroke="#2a0f04" stroke-width="10.4" fill="none" stroke-linecap="round"/><path d="M726.5 341 Q635.5 276 570.5 367" stroke="#2a0f04" stroke-width="7.800000000000001" fill="none" stroke-linecap="round"/><path d="M726.5 341 Q817.5 276 882.5 367" stroke="#2a0f04" stroke-width="7.800000000000001" fill="none" stroke-linecap="round"/><path d="M726.5 341 Q674.5 224 616 302" stroke="#2a0f04" stroke-width="7.800000000000001" fill="none" stroke-linecap="round"/><path d="M726.5 341 Q778.5 224 837 302" stroke="#2a0f04" stroke-width="7.800000000000001" fill="none" stroke-linecap="round"/><path d="M726.5 341 Q661.5 315 596.5 412.5" stroke="#2a0f04" stroke-width="7.800000000000001" fill="none" stroke-linecap="round"/><path d="M726.5 341 Q791.5 315 856.5 412.5" stroke="#2a0f04" stroke-width="7.800000000000001" fill="none" stroke-linecap="round"/><g transform="translate(150 250) rotate(-12)"><ellipse rx="80" ry="34" fill="#c2410c"/><polygon points="70,0 125,-34 125,34" fill="#c2410c"/><circle cx="-48" cy="-8" r="6" fill="#fff"/><path d="M-20 -30 q20 30 0 60" stroke="#7c2d12" stroke-width="4" fill="none"/></g><path d="M290 400 h220 q0 90 -110 90 q-110 0 -110 -90z" fill="#5b2a0e"/><ellipse cx="400" cy="400" rx="110" ry="18" fill="#92400e"/><g stroke="#fff" stroke-width="8" fill="none" opacity=".5" stroke-linecap="round"><path d="M360 380 q-20 -40 0 -70 q20 -30 0 -60"/><path d="M400 380 q-20 -40 0 -70 q20 -30 0 -60"/><path d="M440 380 q-20 -40 0 -70 q20 -30 0 -60"/></g><rect y="500" width="800" height="600" fill="url(#pn)"/><rect x="300" y="612" width="200" height="3" fill="#D4AF37"/><text x="400" y="655" font-size="58" font-weight="800" fill="#fff8e1" text-anchor="middle">Festival de la</text><text x="400" y="721" font-size="58" font-weight="800" fill="#fff8e1" text-anchor="middle">Gastronomie Gabonaise</text><text x="400" y="801" font-size="32" font-weight="700" fill="#FCD116" text-anchor="middle">Samedi 21 novembre 2026 · 12h00</text><text x="400" y="847" font-size="27" fill="#e5e7eb" text-anchor="middle">Esplanade du Front de mer, Libreville</text><text x="400" y="1030" font-size="22" letter-spacing="6" fill="#D4AF37" text-anchor="middle">BIJOU · BILLETTERIE</text><rect y="1055" width="800" height="15" fill="#009E60"/><rect y="1070" width="800" height="15" fill="#FCD116"/><rect y="1085" width="800" height="15" fill="#3A75C4"/></svg>