<svg xmlns="http://www.w3.org/2000/svg" viewBox="0 0 800 1100" width="800" height="1100" font-family="Trebuchet MS, Arial, sans-serif"><defs><linearGradient id="sk" x1="0" y1="0" x2="0" y2="1"><stop offset="0" stop-color="#1b1040"/><stop offset="1" stop-color="#5a2a7a"/></linearGradient><linearGradient id="pn" x1="0" y1="0" x2="0" y2="1"><stop offset="0" stop-color="#05060d" stop-opacity="0"/><stop offset=".12" stop-color="#05060d" stop-opacity=".88"/><stop offset="1" stop-color="#05060d" stop-opacity=".96"/></linearGradient></defs><rect width="800" height="1100" fill="url(#sk)"/><circle cx="0" cy="276" r="1.2" fill="#fff" opacity="0.53"/><circle cx="583" cy="160" r="1.3" fill="#fff" opacity="0.85"/><circle cx="604" cy="163" r="2.0" fill="#fff" opacity="0.78"/><circle cx="653" cy="73" r="1.3" fill="#fff" opacity="0.82"/><circle cx="558" cy="16" r="2.0" fill="#fff" opacity="0.68"/><circle cx="738" cy="242" r="0.8" fill="#fff" opacity="0.71"/><circle cx="739" cy="207" r="1.9" fill="#fff" opacity="0.75"/><circle cx="730" cy="273" r="1.3" fill="#fff" opacity="0.60"/><circle cx="670" cy="100" r="0.9" fill="#fff" opacity="0.58"/><circle cx="343" cy="88" r="2.5" fill="#fff" opacity="0.73"/><circle cx="583" cy="263" r="0.7" fill="#fff" opacity="0.56"/><circle cx="449" cy="153" r="1.4" fill="#fff" opacity="0.52"/><circle cx="727" cy="16" r="1.3" fill="#fff" opacity="0.61"/><circle cx="532" cy="277" r="1.6" fill="#fff" opacity="0.50"/><circle cx="324" cy="85" r="1.3" fill="#fff" opacity="0.65"/><circle cx="266" cy="159" r="1.8" fill="#fff" opacity="0.54"/><circle cx="725" cy="137" r="2.3" fill="#fff" opacity="0.78"/><circle cx="507" cy="155" r="1.6" fill="#fff" opacity="0.81"/><circle cx="752" cy="119" r="2.0" fill="#fff" opacity="0.55"/><circle cx="469" cy="105" r="1.3" fill="#fff" opacity="0.63"/><circle cx="636" cy="263" r="0.8" fill="#fff" opacity="0.89"/><circle cx="62" cy="122" r="0.9" fill="#fff" opacity="0.45"/><circle cx="797" cy="66" r="1.9" fill="#fff" opacity="0.49"/><circle cx="366" cy="178" r="0.9" fill="#fff" opacity="0.95"/><circle cx="708" cy="267" r="2.4" fill="#fff" opacity="0.94"/><circle cx="609" cy="83" r="0.6" fill="#fff" opacity="0.55"/><circle cx="61" cy="0" r="1.8" fill="#fff" opacity="0.54"/><circle cx="593" cy="147" r="2.0" fill="#fff" opacity="0.54"/><circle cx="706" cy="71" r="1.3" fill="#fff" opacity="0.94"/><circle cx="95" cy="147" r="0.6" fill="#fff" opacity="0.95"/><circle cx="510" cy="277" r="0.6" fill="#fff" opacity="0.94"/><circle cx="151" cy="291" r="1.7" fill="#fff" opacity="0.81"/><circle cx="213" cy="67" r="1.0" fill="#fff" opacity="0.74"/><circle cx="42" cy="231" r="2.0" fill="#fff" opacity="0.83"/><circle cx="399" cy="10" r="0.8" fill="#fff" opacity="0.95"/><circle cx="105" cy="206" r="2.4" fill="#fff" opacity="0.42"/><circle cx="707" cy="258" r="2.6" fill="#fff" opacity="0.97"/><circle cx="612" cy="126" r="1.1" fill="#fff" opacity="0.84"/><circle cx="706" cy="119" r="1.1" fill="#fff" opacity="0.64"/><circle cx="710" cy="168" r="1.3" fill="#fff" opacity="0.77"/><circle cx="588" cy="101" r="2.1" fill="#fff" opacity="0.65"/><circle cx="159" cy="94" r="2.6" fill="#fff" opacity="1.00"/><circle cx="506" cy="262" r="2.4" fill="#fff" opacity="0.52"/><circle cx="516" cy="41" r="1.6" fill="#fff" opacity="0.73"/><circle cx="617" cy="284" r="1.6" fill="#fff" opacity="0.51"/><circle cx="357" cy="50" r="1.9" fill="#fff" opacity="0.71"/><circle cx="449" cy="152" r="2.1" fill="#fff" opacity="0.62"/><circle cx="601" cy="8" r="1.2" fill="#fff" opacity="0.73"/><circle cx="162" cy="217" r="1.2" fill="#fff" opacity="0.54"/><circle cx="528" cy="129" r="0.8" fill="#fff" opacity="0.86"/><circle cx="658" cy="275" r="2.4" fill="#fff" opacity="0.81"/><circle cx="767" cy="8" r="2.1" fill="#fff" opacity="0.76"/><circle cx="579" cy="269" r="0.7" fill="#fff" opacity="0.48"/><circle cx="64" cy="32" r="0.8" fill="#fff" opacity="0.41"/><circle cx="484" cy="284" r="1.0" fill="#fff" opacity="0.48"/><circle cx="162" cy="202" r="1.1" fill="#fff" opacity="0.67"/><circle cx="795" cy="127" r="1.9" fill="#fff" opacity="0.86"/><circle cx="318" cy="125" r="0.7" fill="#fff" opacity="0.54"/><circle cx="646" cy="292" r="0.9" fill="#fff" opacity="0.96"/><circle cx="407" cy="37" r="1.0" fill="#fff" opacity="0.76"/><circle cx="560" cy="170" r="110" fill="#FFF3C4" opacity=".15"/><circle cx="560" cy="170" r="70" fill="#FFF3C4"/><polygon points="150,0 40,560 260,560" fill="#f0abfc" opacity="0.1"/><polygon points="650,0 540,560 760,560" fill="#67e8f9" opacity="0.1"/><path d="M0 400 q50 -20 100 0 t100 0 q50 -20 100 0 t100 0 q50 -20 100 0 t100 0 q50 -20 100 0 t100 0 L800 600 L0 600 Z" fill="#2a1a5a" opacity="1"/><path d="M0 450 q50 -20 100 0 t100 0 q50 -20 100 0 t100 0 q50 -20 100 0 t100 0 q50 -20 100 0 t100 0 L800 650 L0 650 Z" fill="#150a3a" opacity="1"/><rect x="520" y="410" width="80" height="6" rx="3" fill="#FFF3C4" opacity=".6"/><rect x="535" y="430" width="50" height="5" rx="2" fill="#FFF3C4" opacity=".4"/><path d="M90 560 Q109.8 461 95.5 362" stroke="#0b0620" stroke-width="8.8" fill="none" stroke-linecap="round"/><path d="M95.5 362 Q18.5 307 -36.5 384" stroke="#0b0620" stroke-width="6.6000000000000005" fill="none" stroke-linecap="round"/><path d="M95.5 362 Q172.5 307 227.5 384" stroke="#0b0620" stroke-width="6.6000000000000005" fill="none" stroke-linecap="round"/><path d="M95.5 362 Q51.5 263 1.9999999999999858 329" stroke="#0b0620" stroke-width="6.6000000000000005" fill="none" stroke-linecap="round"/><path d="M95.5 362 Q139.5 263 189 329" stroke="#0b0620" stroke-width="6.6000000000000005" fill="none" stroke-linecap="round"/><path d="M95.5 362 Q40.49999999999999 340 -14.500000000000014 422.5" stroke="#0b0620" stroke-width="6.6000000000000005" fill="none" stroke-linecap="round"/><path d="M95.5 362 Q150.5 340 205.5 422.5" stroke="#0b0620" stroke-width="6.6000000000000005" fill="none" stroke-linecap="round"/><path d="M710 570 Q733.4 453 716.5 336" stroke="#0b0620" stroke-width="10.4" fill="none" stroke-linecap="round"/><path d="M716.5 336 Q625.5 271 560.5 362" stroke="#0b0620" stroke-width="7.800000000000001" fill="none" stroke-linecap="round"/><path d="M716.5 336 Q807.5 271 872.5 362" stroke="#0b0620" stroke-width="7.800000000000001" fill="none" stroke-linecap="round"/><path d="M716.5 336 Q664.5 219 606 297" stroke="#0b0620" stroke-width="7.800000000000001" fill="none" stroke-linecap="round"/><path d="M716.5 336 Q768.5 219 827 297" stroke="#0b0620" stroke-width="7.800000000000001" fill="none" stroke-linecap="round"/><path d="M716.5 336 Q651.5 310 586.5 407.5" stroke="#0b0620" stroke-width="7.800000000000001" fill="none" stroke-linecap="round"/><path d="M716.5 336 Q781.5 310 846.5 407.5" stroke="#0b0620" stroke-width="7.800000000000001" fill="none" stroke-linecap="round"/><g fill="#D4AF37" transform="translate(300 250) scale(1.3)"><ellipse cx="0" cy="0" rx="14" ry="10" transform="rotate(-20)"/><rect x="10" y="-62" width="4" height="60"/><path d="M14 -62 q22 8 14 34 q-4 -16 -14 -18z"/></g><g fill="#f0abfc" transform="translate(380 330) scale(1)"><ellipse cx="0" cy="0" rx="14" ry="10" transform="rotate(-20)"/><rect x="10" y="-62" width="4" height="60"/><path d="M14 -62 q22 8 14 34 q-4 -16 -14 -18z"/></g><rect y="500" width="800" height="600" fill="url(#pn)"/><rect x="300" y="612" width="200" height="3" fill="#D4AF37"/><text x="400" y="655" font-size="58" font-weight="800" fill="#fff8e1" text-anchor="middle">Nuit du Komo</text><text x="400" y="721" font-size="32" font-weight="600" fill="#D4AF37" text-anchor="middle">Concert Afro-Fusion</text><text x="400" y="777" font-size="32" font-weight="700" fill="#FCD116" text-anchor="middle">Samedi 24 octobre 2026 · 20h00</text><text x="400" y="823" font-size="27" fill="#e5e7eb" text-anchor="middle">Palais des Sports, Libreville</text><text x="400" y="1030" font-size="22" letter-spacing="6" fill="#D4AF37" text-anchor="middle">BIJOU · BILLETTERIE</text><rect y="1055" width="800" height="15" fill="#009E60"/><rect y="1070" width="800" height="15" fill="#FCD116"/><rect y="1085" width="800" height="15" fill="#3A75C4"/></svg>