<svg xmlns="http://www.w3.org/2000/svg" viewBox="0 0 800 1100" width="800" height="1100" font-family="Trebuchet MS, Arial, sans-serif"><defs><linearGradient id="sk" x1="0" y1="0" x2="0" y2="1"><stop offset="0" stop-color="#2a0a4a"/><stop offset="1" stop-color="#c026d3"/></linearGradient><linearGradient id="pn" x1="0" y1="0" x2="0" y2="1"><stop offset="0" stop-color="#05060d" stop-opacity="0"/><stop offset=".12" stop-color="#05060d" stop-opacity=".88"/><stop offset="1" stop-color="#05060d" stop-opacity=".96"/></linearGradient></defs><rect width="800" height="1100" fill="url(#sk)"/><circle cx="0" cy="368" r="1.2" fill="#fff" opacity="0.53"/><circle cx="583" cy="213" r="1.3" fill="#fff" opacity="0.85"/><circle cx="604" cy="217" r="2.0" fill="#fff" opacity="0.78"/><circle cx="653" cy="97" r="1.3" fill="#fff" opacity="0.82"/><circle cx="558" cy="22" r="2.0" fill="#fff" opacity="0.68"/><circle cx="738" cy="323" r="0.8" fill="#fff" opacity="0.71"/><circle cx="739" cy="275" r="1.9" fill="#fff" opacity="0.75"/><circle cx="730" cy="363" r="1.3" fill="#fff" opacity="0.60"/><circle cx="670" cy="133" r="0.9" fill="#fff" opacity="0.58"/><circle cx="343" cy="118" r="2.5" fill="#fff" opacity="0.73"/><circle cx="583" cy="351" r="0.7" fill="#fff" opacity="0.56"/><circle cx="449" cy="204" r="1.4" fill="#fff" opacity="0.52"/><circle cx="727" cy="22" r="1.3" fill="#fff" opacity="0.61"/><circle cx="532" cy="370" r="1.6" fill="#fff" opacity="0.50"/><circle cx="324" cy="113" r="1.3" fill="#fff" opacity="0.65"/><circle cx="266" cy="213" r="1.8" fill="#fff" opacity="0.54"/><circle cx="725" cy="183" r="2.3" fill="#fff" opacity="0.78"/><circle cx="507" cy="206" r="1.6" fill="#fff" opacity="0.81"/><circle cx="752" cy="159" r="2.0" fill="#fff" opacity="0.55"/><circle cx="469" cy="140" r="1.3" fill="#fff" opacity="0.63"/><circle cx="636" cy="351" r="0.8" fill="#fff" opacity="0.89"/><circle cx="62" cy="163" r="0.9" fill="#fff" opacity="0.45"/><circle cx="797" cy="88" r="1.9" fill="#fff" opacity="0.49"/><circle cx="366" cy="237" r="0.9" fill="#fff" opacity="0.95"/><circle cx="708" cy="356" r="2.4" fill="#fff" opacity="0.94"/><circle cx="609" cy="110" r="0.6" fill="#fff" opacity="0.55"/><circle cx="61" cy="1" r="1.8" fill="#fff" opacity="0.54"/><circle cx="593" cy="196" r="2.0" fill="#fff" opacity="0.54"/><circle cx="706" cy="94" r="1.3" fill="#fff" opacity="0.94"/><circle cx="95" cy="196" r="0.6" fill="#fff" opacity="0.95"/><circle cx="510" cy="369" r="0.6" fill="#fff" opacity="0.94"/><circle cx="151" cy="387" r="1.7" fill="#fff" opacity="0.81"/><circle cx="213" cy="89" r="1.0" fill="#fff" opacity="0.74"/><circle cx="42" cy="308" r="2.0" fill="#fff" opacity="0.83"/><circle cx="399" cy="13" r="0.8" fill="#fff" opacity="0.95"/><circle cx="105" cy="275" r="2.4" fill="#fff" opacity="0.42"/><circle cx="707" cy="345" r="2.6" fill="#fff" opacity="0.97"/><circle cx="612" cy="168" r="1.1" fill="#fff" opacity="0.84"/><circle cx="706" cy="159" r="1.1" fill="#fff" opacity="0.64"/><circle cx="710" cy="224" r="1.3" fill="#fff" opacity="0.77"/><polygon points="100,0 10,560 190,560" fill="#22d3ee" opacity="0.18"/><polygon points="700,0 610,560 790,560" fill="#facc15" opacity="0.18"/><polygon points="400,0 280,560 520,560" fill="#f472b6" opacity="0.12"/><line x1="400" y1="0" x2="400" y2="100" stroke="#ddd" stroke-width="4"/><circle cx="400" cy="190" r="90" fill="#cbd5e1"/><path d="M310 190 H490 M320 140 H480 M320 240 H480 M400 100 V280 M355 105 Q320 190 355 275 M445 105 Q480 190 445 275" stroke="#64748b" stroke-width="3" fill="none"/><g transform="translate(620 250)"><polygon points="0,-40 90,0 0,40 -90,0" fill="#111"/><path d="M-50 20 v40 q50 30 100 0 v-40" fill="#1f1f1f"/><line x1="70" y1="6" x2="70" y2="70" stroke="#D4AF37" stroke-width="5"/><circle cx="70" cy="76" r="8" fill="#D4AF37"/></g><circle cx="40" cy="470" r="22" fill="#12041f"/><ellipse cx="40" cy="540" rx="38" ry="52" fill="#12041f"/><path d="M10 520 L-15 440 M70 520 L95 440" stroke="#12041f" stroke-width="12" stroke-linecap="round" fill="none"/><circle cx="143" cy="470" r="22" fill="#12041f"/><ellipse cx="143" cy="540" rx="38" ry="52" fill="#12041f"/><circle cx="246" cy="470" r="22" fill="#12041f"/><ellipse cx="246" cy="540" rx="38" ry="52" fill="#12041f"/><path d="M216 520 L191 440 M276 520 L301 440" stroke="#12041f" stroke-width="12" stroke-linecap="round" fill="none"/><circle cx="349" cy="470" r="22" fill="#12041f"/><ellipse cx="349" cy="540" rx="38" ry="52" fill="#12041f"/><circle cx="451" cy="470" r="22" fill="#12041f"/><ellipse cx="451" cy="540" rx="38" ry="52" fill="#12041f"/><path d="M421 520 L396 440 M481 520 L506 440" stroke="#12041f" stroke-width="12" stroke-linecap="round" fill="none"/><circle cx="554" cy="470" r="22" fill="#12041f"/><ellipse cx="554" cy="540" rx="38" ry="52" fill="#12041f"/><circle cx="657" cy="470" r="22" fill="#12041f"/><ellipse cx="657" cy="540" rx="38" ry="52" fill="#12041f"/><path d="M627 520 L602 440 M687 520 L712 440" stroke="#12041f" stroke-width="12" stroke-linecap="round" fill="none"/><circle cx="760" cy="470" r="22" fill="#12041f"/><ellipse cx="760" cy="540" rx="38" ry="52" fill="#12041f"/><rect y="500" width="800" height="600" fill="url(#pn)"/><rect x="300" y="612" width="200" height="3" fill="#D4AF37"/><text x="400" y="655" font-size="58" font-weight="800" fill="#fff8e1" text-anchor="middle">Soirée étudiante</text><text x="400" y="721" font-size="32" font-weight="600" fill="#D4AF37" text-anchor="middle">Rentrée UOB</text><text x="400" y="777" font-size="32" font-weight="700" fill="#FCD116" text-anchor="middle">Samedi 28 novembre 2026 · 21h00</text><text x="400" y="823" font-size="27" fill="#e5e7eb" text-anchor="middle">Campus Université Omar Bongo, Libreville</text><text x="400" y="1030" font-size="22" letter-spacing="6" fill="#D4AF37" text-anchor="middle">BIJOU · BILLETTERIE</text><rect y="1055" width="800" height="15" fill="#009E60"/><rect y="1070" width="800" height="15" fill="#FCD116"/><rect y="1085" width="800" height="15" fill="#3A75C4"/></svg>