<?xml version="1.0" encoding="UTF-8"?>
<svg xmlns="http://www.w3.org/2000/svg" xmlns:xlink="http://www.w3.org/1999/xlink" viewBox="-4 -4 88 64">
<defs>
<linearGradient id="chrome" x1="0" y1="0" x2="0" y2="1"><stop offset="0" stop-color="#FFFFFF"/><stop offset=".25" stop-color="#C9D0DA"/><stop offset=".5" stop-color="#7C8697"/><stop offset=".52" stop-color="#E9EDF3"/><stop offset=".75" stop-color="#AEB6C4"/><stop offset="1" stop-color="#F5F7FA"/></linearGradient>
<linearGradient id="blueBody" x1="0" y1="0" x2="1" y2="1"><stop offset="0" stop-color="#2563EB"/><stop offset=".5" stop-color="#0B2A8F"/><stop offset="1" stop-color="#050A24"/></linearGradient>
<linearGradient id="gemTop" x1="0" y1="0" x2="0" y2="1"><stop offset="0" stop-color="#EAF6FF"/><stop offset="1" stop-color="#5AA2FF"/></linearGradient>
<linearGradient id="gemBot" x1="0" y1="0" x2="0" y2="1"><stop offset="0" stop-color="#3B82F6"/><stop offset="1" stop-color="#0A1F7A"/></linearGradient>
<linearGradient id="gold" x1="0" y1="0" x2="1" y2="0"><stop offset="0" stop-color="#F5D76E"/><stop offset=".5" stop-color="#D4AF37"/><stop offset="1" stop-color="#F5D76E"/></linearGradient>
<linearGradient id="txt" x1="0" y1="0" x2="0" y2="1"><stop offset="0" stop-color="#3B6FE0"/><stop offset=".5" stop-color="#0B2A8F"/><stop offset=".52" stop-color="#1E3A8A"/><stop offset="1" stop-color="#0A1440"/></linearGradient>
<linearGradient id="silverText" x1="0" y1="0" x2="0" y2="1"><stop offset="0" stop-color="#FFFFFF"/><stop offset=".45" stop-color="#AEB6C4"/><stop offset=".55" stop-color="#6F7A8C"/><stop offset="1" stop-color="#E9EDF3"/></linearGradient>
<linearGradient id="darkBg" x1="0" y1="0" x2="1" y2="1"><stop offset="0" stop-color="#07070C"/><stop offset="1" stop-color="#0B1A4A"/></linearGradient>
<clipPath id="tk"><path d="M6,0 H74 A6,6 0 0 1 80,6 V22 A6,6 0 0 0 80,34 V50 A6,6 0 0 1 74,56 H6 A6,6 0 0 1 0,50 V34 A6,6 0 0 0 0,22 V6 A6,6 0 0 1 6,0 Z"/></clipPath>
<path id="sp" d="M0,-6 Q0,0 6,0 Q0,0 0,6 Q0,0 -6,0 Q0,0 0,-6Z" fill="#FFFFFF"/>
<path id="outl" d="M6,0 H74 A6,6 0 0 1 80,6 V22 A6,6 0 0 0 80,34 V50 A6,6 0 0 1 74,56 H6 A6,6 0 0 1 0,50 V34 A6,6 0 0 0 0,22 V6 A6,6 0 0 1 6,0 Z" fill="#050A24" stroke="#050A24" stroke-width="6" stroke-linejoin="round"/>
<g id="core"><path d="M6,0 H74 A6,6 0 0 1 80,6 V22 A6,6 0 0 0 80,34 V50 A6,6 0 0 1 74,56 H6 A6,6 0 0 1 0,50 V34 A6,6 0 0 0 0,22 V6 A6,6 0 0 1 6,0 Z" fill="url(#blueBody)" stroke="url(#chrome)" stroke-width="2.5"/><g clip-path="url(#tk)"><rect x="0" y="0" width="80" height="22" fill="#FFFFFF" opacity=".08"/><polygon points="14,0 34,0 12,56 -8,56" fill="#FFFFFF" opacity=".18"/><polygon points="40,0 46,0 24,56 18,56" fill="#FFFFFF" opacity=".12"/></g><line x1="8" y1="3.5" x2="72" y2="3.5" stroke="#FFFFFF" stroke-width=".8" opacity=".6"/><line x1="62" y1="8" x2="62" y2="48" stroke="#E9EDF3" stroke-width="1.2" stroke-dasharray="3 3" opacity=".7"/><line x1="66" y1="18" x2="71" y2="18" stroke="#D4AF37" stroke-width="1.6" stroke-linecap="round"/><line x1="66" y1="28" x2="71" y2="28" stroke="#D4AF37" stroke-width="1.6" stroke-linecap="round"/><line x1="66" y1="38" x2="71" y2="38" stroke="#D4AF37" stroke-width="1.6" stroke-linecap="round"/><polygon points="22,18 42,18 48,27 16,27" fill="url(#gemTop)" stroke="url(#chrome)" stroke-width="1" stroke-linejoin="round"/><polygon points="16,27 48,27 32,46" fill="url(#gemBot)" stroke="url(#chrome)" stroke-width="1" stroke-linejoin="round"/><polyline points="27,18 24,27 32,46 40,27 37,18" fill="none" stroke="#FFFFFF" stroke-width=".8" opacity=".85" stroke-linejoin="round"/><line x1="24" y1="27" x2="40" y2="27" stroke="#FFFFFF" stroke-width=".8" opacity=".85"/><use href="#sp" transform="translate(48,14) scale(1.1)"/><use href="#sp" transform="translate(13,42) scale(.55)"/></g>
</defs>
<use href="#core"/>
</svg>
