<?xml version="1.0" encoding="UTF-8"?>
<svg xmlns="http://www.w3.org/2000/svg" xmlns:xlink="http://www.w3.org/1999/xlink" viewBox="0 0 380 130">
<defs>
<linearGradient id="chrome" x1="0" y1="0" x2="0" y2="1"><stop offset="0" stop-color="#FFFFFF"/><stop offset=".25" stop-color="#C9D0DA"/><stop offset=".5" stop-color="#7C8697"/><stop offset=".52" stop-color="#E9EDF3"/><stop offset=".75" stop-color="#AEB6C4"/><stop offset="1" stop-color="#F5F7FA"/></linearGradient>
<linearGradient id="blueBody" x1="0" y1="0" x2="1" y2="1"><stop offset="0" stop-color="#2563EB"/><stop offset=".5" stop-color="#0B2A8F"/><stop offset="1" stop-color="#050A24"/></linearGradient>
<linearGradient id="gemTop" x1="0" y1="0" x2="0" y2="1"><stop offset="0" stop-color="#EAF6FF"/><stop offset="1" stop-color="#5AA2FF"/></linearGradient>
<linearGradient id="gemBot" x1="0" y1="0" x2="0" y2="1"><stop offset="0" stop-color="#3B82F6"/><stop offset="1" stop-color="#0A1F7A"/></linearGradient>
<linearGradient id="gold" x1="0" y1="0" x2="1" y2="0"><stop offset="0" stop-color="#F5D76E"/><stop offset=".5" stop-color="#D4AF37"/><stop offset="1" stop-color="#F5D76E"/></linearGradient>
<linearGradient id="txt" x1="0" y1="0" x2="0" y2="1"><stop offset="0" stop-color="#3B6FE0"/><stop offset=".5" stop-color="#0B2A8F"/><stop offset=".52" stop-color="#1E3A8A"/><stop offset="1" stop-color="#0A1440"/></linearGradient>
<linearGradient id="silverText" x1="0" y1="0" x2="0" y2="1"><stop offset="0" stop-color="#FFFFFF"/><stop offset=".45" stop-color="#AEB6C4"/><stop offset=".55" stop-color="#6F7A8C"/><stop offset="1" stop-color="#E9EDF3"/></linearGradient>
<linearGradient id="darkBg" x1="0" y1="0" x2="1" y2="1"><stop offset="0" stop-color="#07070C"/><stop offset="1" stop-color="#0B1A4A"/></linearGradient>
<clipPath id="tk"><path d="M6,0 H74 A6,6 0 0 1 80,6 V22 A6,6 0 0 0 80,34 V50 A6,6 0 0 1 74,56 H6 A6,6 0 0 1 0,50 V34 A6,6 0 0 0 0,22 V6 A6,6 0 0 1 6,0 Z"/></clipPath>
<path id="sp" d="M0,-6 Q0,0 6,0 Q0,0 0,6 Q0,0 -6,0 Q0,0 0,-6Z" fill="#FFFFFF"/>
<path id="outl" d="M6,0 H74 A6,6 0 0 1 80,6 V22 A6,6 0 0 0 80,34 V50 A6,6 0 0 1 74,56 H6 A6,6 0 0 1 0,50 V34 A6,6 0 0 0 0,22 V6 A6,6 0 0 1 6,0 Z" fill="#050A24" stroke="#050A24" stroke-width="6" stroke-linejoin="round"/>
<g id="core"><path d="M6,0 H74 A6,6 0 0 1 80,6 V22 A6,6 0 0 0 80,34 V50 A6,6 0 0 1 74,56 H6 A6,6 0 0 1 0,50 V34 A6,6 0 0 0 0,22 V6 A6,6 0 0 1 6,0 Z" fill="url(#blueBody)" stroke="url(#chrome)" stroke-width="2.5"/><g clip-path="url(#tk)"><rect x="0" y="0" width="80" height="22" fill="#FFFFFF" opacity=".08"/><polygon points="14,0 34,0 12,56 -8,56" fill="#FFFFFF" opacity=".18"/><polygon points="40,0 46,0 24,56 18,56" fill="#FFFFFF" opacity=".12"/></g><line x1="8" y1="3.5" x2="72" y2="3.5" stroke="#FFFFFF" stroke-width=".8" opacity=".6"/><line x1="62" y1="8" x2="62" y2="48" stroke="#E9EDF3" stroke-width="1.2" stroke-dasharray="3 3" opacity=".7"/><line x1="66" y1="18" x2="71" y2="18" stroke="#D4AF37" stroke-width="1.6" stroke-linecap="round"/><line x1="66" y1="28" x2="71" y2="28" stroke="#D4AF37" stroke-width="1.6" stroke-linecap="round"/><line x1="66" y1="38" x2="71" y2="38" stroke="#D4AF37" stroke-width="1.6" stroke-linecap="round"/><polygon points="22,18 42,18 48,27 16,27" fill="url(#gemTop)" stroke="url(#chrome)" stroke-width="1" stroke-linejoin="round"/><polygon points="16,27 48,27 32,46" fill="url(#gemBot)" stroke="url(#chrome)" stroke-width="1" stroke-linejoin="round"/><polyline points="27,18 24,27 32,46 40,27 37,18" fill="none" stroke="#FFFFFF" stroke-width=".8" opacity=".85" stroke-linejoin="round"/><line x1="24" y1="27" x2="40" y2="27" stroke="#FFFFFF" stroke-width=".8" opacity=".85"/><use href="#sp" transform="translate(48,14) scale(1.1)"/><use href="#sp" transform="translate(13,42) scale(.55)"/></g>
</defs>
<rect x="2" y="2" width="376" height="126" rx="10" fill="#FFF9F2" stroke="#050A24" stroke-width="2.5"/>
<g transform="translate(24,38) scale(1.1)"><use href="#outl"/><use href="#core"/></g>
<path d="M126.34667114257813 80.0V78.06402954101563Q127.7986845703125 78.02002954101563 128.43668322753905 77.46268591308595Q129.07468188476562 76.90534228515625 129.24334228515625 75.80533288574219Q129.41200268554687 74.70532348632813 129.41200268554687 73.033326171875V55.09595971679688Q129.41200268554687 53.90795971679688 129.46333557128906 52.96929797363282Q129.51466845703126 52.03063623046875 129.55866845703125 51.458636230468755Q128.796 51.50263623046875 127.91600537109375 51.53930334472656Q127.0360107421875 51.57597045898437 126.34667114257813 51.619970458984376V49.2Q128.97199194335937 49.156000000000006 131.61931274414064 49.14133288574219Q134.2666335449219 49.126665771484376 137.03862548828124 49.112Q142.20128857421875 49.09733422851563 145.15661743164063 50.96733020019532Q148.1119462890625 52.837326171875006 147.97994897460939 56.797323486328125Q147.95061743164064 58.161326171875004 147.17328186035155 59.503330200195315Q146.3959462890625 60.845334228515625 144.86327514648437 61.886669799804686Q143.33060400390625 62.92800537109375 141.02793017578125 63.41200268554688V63.4853369140625Q145.72127246093748 63.7199892578125 148.05328051757812 65.94198925781251Q150.38528857421875 68.1639892578125 150.38528857421875 71.33200268554688Q150.38528857421875 74.07466577148438 149.01395568847656 76.01799865722657Q147.64262280273437 77.96133154296875 145.28129125976562 78.98066577148438Q142.91995971679688 80.0 139.89862817382811 80.0ZM133.94395166015624 77.78536108398437Q134.677283203125 77.8146953125 135.57195568847658 77.82936242675783Q136.46662817382813 77.84402954101563 137.2732979736328 77.83669665527344Q138.0799677734375 77.82936376953126 138.47595971679686 77.82936376953126Q141.62930737304688 77.78536645507812 143.43332482910157 76.12803088378905Q145.23734228515625 74.4706953125 145.23734228515625 71.4640107421875Q145.23734228515625 68.99999731445313 144.2546711425781 67.61399060058594Q143.272 66.22798388671875 141.69532482910157 65.65598120117187Q140.11864965820314 65.083978515625 138.29997045898438 65.083978515625Q137.05329931640625 65.083978515625 136.07062683105468 65.09864562988281Q135.0879543457031 65.11331274414063 134.09061743164062 65.18664697265625V74.20670336914063Q134.09061743164062 75.39470336914063 134.06128454589845 76.3040322265625Q134.03195166015624 77.21336108398438 133.94395166015624 77.78536108398437ZM134.09061743164062 63.001342285156255 136.99463623046876 62.92800805664062Q139.28264965820313 62.884008056640624 140.60999060058595 61.96000402832031Q141.93733154296876 61.036 142.51666845703124 59.591330200195316Q143.09600537109375 58.14666040039063 143.06667114257812 56.533326171875004Q143.0373369140625 54.36264697265625 142.11333020019532 53.211308715820316Q141.18932348632814 52.05997045898438 139.8399812011719 51.619970458984376Q138.49063891601563 51.17997045898437 137.14129931640625 51.19463623046875Q135.93861743164064 51.19463623046875 135.27861474609375 51.53197314453125Q134.61861206054687 51.869310058593754 134.35461474609374 52.74197985839844Q134.09061743164062 53.61464965820313 134.09061743164062 55.271981201171876Z M170.09594897460937 51.135970458984374Q168.687935546875 51.17997045898437 168.02793688964843 51.72264697265625Q167.36793823242186 52.26532348632813 167.19927783203124 53.31399865722656Q167.03061743164062 54.362673828125 167.03061743164062 56.02000268554688V74.10404028320312Q167.03061743164062 75.29204028320312 167.00128454589844 76.23070202636718Q166.97195166015624 77.16936376953124 166.88395166015624 77.74136376953125Q167.6466201171875 77.68269799804688 168.53394763183593 77.64603088378907Q169.42127514648436 77.60936376953126 170.09594897460937 77.58002954101562V80.0H159.28667114257811V78.06402954101563Q160.7386845703125 77.9906953125 161.37668322753905 77.46268591308593Q162.01468188476562 76.93467651367187 162.18334228515624 75.86400134277343Q162.35200268554686 74.793326171875 162.35200268554686 73.17999731445312V54.8906201171875Q162.35200268554686 53.90795971679688 162.40333557128906 52.99863220214844Q162.45466845703126 52.089304687500004 162.49866845703124 51.458636230468755Q161.736 51.50263623046875 160.85600537109374 51.53930334472656Q159.9760107421875 51.57597045898437 159.28667114257811 51.619970458984376V49.2H170.09594897460937Z M182.59063085937498 80.704Q181.19730737304687 80.704 180.01664831542968 80.24933825683593Q178.83598925781249 79.79467651367187 178.1099932861328 78.97335034179687Q177.38399731445313 78.15202416992187 177.38399731445313 77.0520322265625Q177.38399731445313 75.99604296875 177.94865771484376 75.17471813964843Q178.51331811523437 74.35339331054688 179.65730737304688 74.30939331054688Q180.94796240234373 74.22139331054687 181.46862280273436 74.97672216796875Q181.98928320312498 75.73205102539063 182.0039489746094 76.55337451171874Q182.01861474609376 76.78803759765626 181.9526160888672 77.12536779785157Q181.88661743164062 77.46269799804688 181.7546201171875 77.74136108398437Q182.00395434570314 78.18136108398437 182.53928991699217 78.32802819824218Q183.07462548828124 78.4746953125 183.3532939453125 78.44536108398438Q184.5413020019531 78.41602685546874 185.1353046875 77.38202014160156Q185.72930737304688 76.34801342773437 185.72930737304688 73.9426630859375V55.389302001953126Q185.72930737304688 54.31863891601563 185.74397314453125 53.306641601562504Q185.75863891601563 52.29464428710938 185.78797045898438 51.458636230468755Q184.81996240234375 51.50263623046875 183.71996105957032 51.53930334472656Q182.61995971679687 51.57597045898437 181.6959462890625 51.619970458984376V49.2H193.70792749023437V51.135970458984374Q192.41725097656249 51.15063623046875 191.69858386230467 51.60531005859375Q190.97991674804686 52.059983886718754 190.69391943359375 52.97665502929688Q190.4079221191406 53.893326171875 190.4079221191406 55.31598120117188V69.11734228515625Q190.4079221191406 75.36533959960937 188.5012697753906 78.03466979980467Q186.59461743164061 80.704 182.59063085937498 80.704Z M217.39335034179686 80.704Q213.21335034179685 80.704 210.2433489990234 79.29599999999999Q207.27334765624997 77.888 205.42534631347655 75.534Q203.5773449707031 73.18 202.7120107421875 70.32000000000001Q201.84667651367187 67.46000000000001 201.84667651367187 64.6Q201.84667651367187 61.828 202.77800939941403 58.99Q203.70934228515623 56.152 205.62334228515624 53.776Q207.53734228515623 51.400000000000006 210.42667517089842 49.94800000000001Q213.3160080566406 48.496 217.20267382812497 48.496Q221.2360080566406 48.496 224.16934228515623 49.94800000000001Q227.10267651367184 51.400000000000006 228.99467785644526 53.798Q230.88667919921872 56.196 231.81801342773434 59.012Q232.74934765625 61.828 232.74934765625 64.6Q232.74934765625 67.328 231.8180147705078 70.15866711425781Q230.8866818847656 72.98933422851563 228.97268188476562 75.38733422851563Q227.0586818847656 77.78533422851562 224.18401611328125 79.24466711425781Q221.30935034179686 80.704 217.39335034179686 80.704ZM217.61334228515622 78.4306953125Q220.1946845703125 78.4306953125 222.05736108398435 77.27936108398438Q223.92003759765623 76.12802685546875 225.12271276855466 74.22135705566407Q226.3253879394531 72.31468725585938 226.91206042480468 70.00468188476563Q227.49873291015624 67.69467651367188 227.49873291015624 65.40666845703124Q227.49873291015624 62.576008056640624 226.8240617675781 59.95067114257813Q226.14939062499997 57.32533422851563 224.81471679687496 55.24999328613281Q223.48004296874998 53.17465234375 221.49270068359374 51.949978515625Q219.50535839843747 50.7253046875 216.92401611328123 50.739970458984374Q214.35733959960936 50.75463623046875 212.47999597167967 51.93530334472656Q210.60265234374998 53.11597045898438 209.39997717285155 55.029973144531255Q208.19730200195312 56.94397583007813 207.61062951660153 59.26131408691407Q207.02395703124998 61.57865234375 207.02395703124998 63.89599462890625Q207.02395703124998 66.19866845703125 207.6326281738281 68.73600805664063Q208.24129931640624 71.27334765625 209.51730737304686 73.48801879882812Q210.79331542968748 75.70268994140625 212.80265771484375 77.06669262695313Q214.81199999999998 78.4306953125 217.61334228515622 78.4306953125Z M251.63861474609374 51.135970458984374Q250.34793823242185 51.15063623046875 249.6879395751953 51.634644287109374Q249.02794091796872 52.11865234375 248.81527917480466 52.917986572265626Q248.6026174316406 53.71732080078125 248.6026174316406 54.72929663085938V66.154609375Q248.6026174316406 68.72126977539062 249.02061206054685 70.85528051757812Q249.4386066894531 72.98929125976562 250.38460534667968 74.56597448730469Q251.33060400390625 76.14265771484375 252.96594897460938 77.02267114257813Q254.60129394531248 77.9026845703125 257.0066604003906 77.91735034179688Q259.92534228515626 77.94668188476562 261.83201477050784 76.61200537109374Q263.73868725585936 75.27732885742188 264.6773543701172 72.81331811523438Q265.616021484375 70.34930737304687 265.6453557128906 66.97597045898438L265.7333583984375 54.8906201171875Q265.7333583984375 53.90795971679688 265.7773583984375 52.99863220214844Q265.8213583984375 52.089304687500004 265.88002416992185 51.458636230468755Q265.1173557128906 51.50263623046875 264.24469531249997 51.53930334472656Q263.37203491210937 51.57597045898437 262.68269531249996 51.619970458984376V49.2H271.54132080078125V51.135970458984374Q270.1039731445312 51.17997045898437 269.4586416015625 51.72264697265625Q268.81331005859374 52.26532348632813 268.6446496582031 53.31399865722656Q268.4759892578125 54.362673828125 268.44665502929683 56.02000268554688L268.3879865722656 66.49198657226563Q268.3879865722656 69.6599677734375 267.669326171875 72.27063354492188Q266.95066577148435 74.88129931640626 265.46933825683595 76.77330737304688Q263.9880107421875 78.6653154296875 261.72934362792967 79.68465771484375Q259.47067651367183 80.704 256.3906630859375 80.704Q252.81199999999998 80.704 250.39200134277343 79.73600268554688Q247.97200268554687 78.76800537109375 246.54200268554686 76.84667114257812Q245.11200268554686 74.9253369140625 244.50333557128903 72.13866040039062Q243.89466845703123 69.35198388671876 243.89466845703123 65.68529125976562V56.181326171875Q243.89466845703123 55.02266040039063 243.96066845703123 53.614651000976565Q244.02666845703123 52.2066416015625 244.07066845703125 51.458636230468755Q243.308 51.50263623046875 242.42800537109372 51.52463623046875Q241.54801074218747 51.54663623046875 240.85867114257812 51.59063623046875V49.2H251.63861474609374Z" fill="url(#txt)"/>
<rect x="126" y="89.2" width="146.8" height="1.6" fill="url(#gold)"/>
<path d="M125.796875 109.140869140625H128.643798828125V110.0H124.77490234375V102.62158203125H125.796875Z M131.8388671875 104.424072265625Q132.3330078125 104.424072265625 132.754150390625 104.5869140625Q133.17529296875 104.749755859375 133.484130859375 105.064208984375Q133.79296875 105.378662109375 133.967041015625 105.83349609375Q134.14111328125 106.288330078125 134.14111328125 106.8779296875Q134.14111328125 107.108154296875 134.090576171875 107.1839599609375Q134.0400390625 107.259765625 133.9052734375 107.259765625H130.23291015625Q130.244140625 107.7763671875 130.373291015625 108.1610107421875Q130.50244140625 108.545654296875 130.7298583984375 108.79833984375Q130.957275390625 109.051025390625 131.271728515625 109.1773681640625Q131.586181640625 109.3037109375 131.9736328125 109.3037109375Q132.3330078125 109.3037109375 132.596923828125 109.2222900390625Q132.86083984375 109.140869140625 133.0489501953125 109.039794921875Q133.237060546875 108.938720703125 133.3662109375 108.8572998046875Q133.495361328125 108.77587890625 133.5908203125 108.77587890625Q133.652587890625 108.77587890625 133.697509765625 108.8011474609375Q133.742431640625 108.826416015625 133.776123046875 108.871337890625L134.056884765625 109.230712890625Q133.87158203125 109.44970703125 133.6217041015625 109.6097412109375Q133.371826171875 109.769775390625 133.08544921875 109.8736572265625Q132.799072265625 109.9775390625 132.4930419921875 110.028076171875Q132.18701171875 110.07861328125 131.889404296875 110.07861328125Q131.316650390625 110.07861328125 130.833740234375 109.8876953125Q130.350830078125 109.69677734375 129.9998779296875 109.3233642578125Q129.64892578125 108.949951171875 129.452392578125 108.4024658203125Q129.255859375 107.85498046875 129.255859375 107.141845703125Q129.255859375 106.569091796875 129.4327392578125 106.0721435546875Q129.609619140625 105.5751953125 129.9437255859375 105.2073974609375Q130.27783203125 104.839599609375 130.7579345703125 104.6318359375Q131.238037109375 104.424072265625 131.8388671875 104.424072265625ZM131.855712890625 105.142822265625Q131.1650390625 105.142822265625 130.7635498046875 105.547119140625Q130.362060546875 105.951416015625 130.260986328125 106.6533203125H133.25390625Q133.25390625 106.322021484375 133.158447265625 106.0440673828125Q133.06298828125 105.76611328125 132.88330078125 105.5667724609375Q132.70361328125 105.367431640625 132.4425048828125 105.255126953125Q132.181396484375 105.142822265625 131.855712890625 105.142822265625Z  M137.965087890625 110.0V102.01513671875H138.953369140625V105.288818359375Q139.290283203125 104.89013671875 139.72265625 104.6571044921875Q140.155029296875 104.424072265625 140.716552734375 104.424072265625Q141.19384765625 104.424072265625 141.57568359375 104.609375Q141.95751953125 104.794677734375 142.22705078125 105.142822265625Q142.49658203125 105.490966796875 142.6397705078125 105.9879150390625Q142.782958984375 106.48486328125 142.782958984375 107.11376953125Q142.782958984375 107.781982421875 142.6201171875 108.32666015625Q142.457275390625 108.871337890625 142.154052734375 109.2615966796875Q141.850830078125 109.65185546875 141.41845703125 109.865234375Q140.986083984375 110.07861328125 140.447021484375 110.07861328125Q139.907958984375 110.07861328125 139.5457763671875 109.8736572265625Q139.18359375 109.668701171875 138.90283203125 109.3037109375L138.8466796875 109.792236328125Q138.82421875 110.0 138.605224609375 110.0ZM140.38525390625 105.20458984375Q139.930419921875 105.20458984375 139.5850830078125 105.41796875Q139.23974609375 105.63134765625 138.953369140625 106.0244140625V108.6748046875Q139.211669921875 109.028564453125 139.5205078125 109.1717529296875Q139.829345703125 109.31494140625 140.199951171875 109.31494140625Q140.9580078125 109.31494140625 141.3623046875 108.770263671875Q141.7666015625 108.2255859375 141.7666015625 107.1474609375Q141.7666015625 106.14794921875 141.4072265625 105.67626953125Q141.0478515625 105.20458984375 140.38525390625 105.20458984375Z M143.816162109375 110.0ZM145.01220703125 104.50830078125V110.0H144.02392578125V104.50830078125ZM145.203125 102.7900390625Q145.203125 102.930419921875 145.14697265625 103.0567626953125Q145.0908203125 103.18310546875 144.9925537109375 103.2757568359375Q144.894287109375 103.368408203125 144.7679443359375 103.424560546875Q144.6416015625 103.480712890625 144.501220703125 103.480712890625Q144.36083984375 103.480712890625 144.2373046875 103.424560546875Q144.11376953125 103.368408203125 144.0211181640625 103.2757568359375Q143.928466796875 103.18310546875 143.872314453125 103.0567626953125Q143.816162109375 102.930419921875 143.816162109375 102.7900390625Q143.816162109375 102.64404296875 143.872314453125 102.5177001953125Q143.928466796875 102.391357421875 144.0211181640625 102.2958984375Q144.11376953125 102.200439453125 144.2373046875 102.144287109375Q144.36083984375 102.088134765625 144.501220703125 102.088134765625Q144.6416015625 102.088134765625 144.7679443359375 102.144287109375Q144.894287109375 102.200439453125 144.9925537109375 102.2958984375Q145.0908203125 102.391357421875 145.14697265625 102.5177001953125Q145.203125 102.64404296875 145.203125 102.7900390625Z M147.6513671875 102.01513671875V110.0H146.6630859375V102.01513671875Z M150.29052734375 102.01513671875V110.0H149.30224609375V102.01513671875Z M154.1201171875 104.424072265625Q154.6142578125 104.424072265625 155.035400390625 104.5869140625Q155.45654296875 104.749755859375 155.765380859375 105.064208984375Q156.07421875 105.378662109375 156.248291015625 105.83349609375Q156.42236328125 106.288330078125 156.42236328125 106.8779296875Q156.42236328125 107.108154296875 156.371826171875 107.1839599609375Q156.3212890625 107.259765625 156.1865234375 107.259765625H152.51416015625Q152.525390625 107.7763671875 152.654541015625 108.1610107421875Q152.78369140625 108.545654296875 153.0111083984375 108.79833984375Q153.238525390625 109.051025390625 153.552978515625 109.1773681640625Q153.867431640625 109.3037109375 154.2548828125 109.3037109375Q154.6142578125 109.3037109375 154.878173828125 109.2222900390625Q155.14208984375 109.140869140625 155.3302001953125 109.039794921875Q155.518310546875 108.938720703125 155.6474609375 108.8572998046875Q155.776611328125 108.77587890625 155.8720703125 108.77587890625Q155.933837890625 108.77587890625 155.978759765625 108.8011474609375Q156.023681640625 108.826416015625 156.057373046875 108.871337890625L156.338134765625 109.230712890625Q156.15283203125 109.44970703125 155.9029541015625 109.6097412109375Q155.653076171875 109.769775390625 155.36669921875 109.8736572265625Q155.080322265625 109.9775390625 154.7742919921875 110.028076171875Q154.46826171875 110.07861328125 154.170654296875 110.07861328125Q153.597900390625 110.07861328125 153.114990234375 109.8876953125Q152.632080078125 109.69677734375 152.2811279296875 109.3233642578125Q151.93017578125 108.949951171875 151.733642578125 108.4024658203125Q151.537109375 107.85498046875 151.537109375 107.141845703125Q151.537109375 106.569091796875 151.7139892578125 106.0721435546875Q151.890869140625 105.5751953125 152.2249755859375 105.2073974609375Q152.55908203125 104.839599609375 153.0391845703125 104.6318359375Q153.519287109375 104.424072265625 154.1201171875 104.424072265625ZM154.136962890625 105.142822265625Q153.4462890625 105.142822265625 153.0447998046875 105.547119140625Q152.643310546875 105.951416015625 152.542236328125 106.6533203125H155.53515625Q155.53515625 106.322021484375 155.439697265625 106.0440673828125Q155.34423828125 105.76611328125 155.16455078125 105.5667724609375Q154.98486328125 105.367431640625 154.7237548828125 105.255126953125Q154.462646484375 105.142822265625 154.136962890625 105.142822265625Z M159.179443359375 110.084228515625Q158.544921875 110.084228515625 158.202392578125 109.71923828125Q157.85986328125 109.354248046875 157.85986328125 108.6748046875V105.328125H157.23095703125Q157.146728515625 105.328125 157.0877685546875 105.27197265625Q157.02880859375 105.2158203125 157.02880859375 105.109130859375V104.716064453125L157.8935546875 104.603759765625L158.123779296875 102.91357421875Q158.135009765625 102.829345703125 158.1939697265625 102.77880859375Q158.2529296875 102.728271484375 158.3427734375 102.728271484375H158.84814453125V104.609375H160.358642578125V105.328125H158.84814453125V108.607421875Q158.84814453125 108.9443359375 159.0025634765625 109.11279296875Q159.156982421875 109.28125 159.404052734375 109.28125Q159.550048828125 109.28125 159.6539306640625 109.241943359375Q159.7578125 109.20263671875 159.830810546875 109.152099609375Q159.90380859375 109.1015625 159.9571533203125 109.062255859375Q160.010498046875 109.02294921875 160.055419921875 109.02294921875Q160.10595703125 109.02294921875 160.1368408203125 109.04541015625Q160.167724609375 109.06787109375 160.19580078125 109.118408203125L160.48779296875 109.590087890625Q160.235107421875 109.825927734375 159.892578125 109.955078125Q159.550048828125 110.084228515625 159.179443359375 110.084228515625Z  M167.65283203125 110.0Q167.5068359375 110.0 167.42822265625 109.955078125Q167.349609375 109.91015625 167.321533203125 109.769775390625L167.197998046875 109.2587890625Q166.984619140625 109.455322265625 166.7796630859375 109.6097412109375Q166.57470703125 109.76416015625 166.35009765625 109.870849609375Q166.12548828125 109.9775390625 165.8671875 110.0308837890625Q165.60888671875 110.084228515625 165.300048828125 110.084228515625Q164.97998046875 110.084228515625 164.7020263671875 109.9971923828125Q164.424072265625 109.91015625 164.2135009765625 109.7276611328125Q164.0029296875 109.545166015625 163.8822021484375 109.2728271484375Q163.761474609375 109.00048828125 163.761474609375 108.6298828125Q163.761474609375 108.30419921875 163.9383544921875 108.0037841796875Q164.115234375 107.703369140625 164.513916015625 107.467529296875Q164.91259765625 107.231689453125 165.552734375 107.0828857421875Q166.19287109375 106.93408203125 167.125 106.91162109375V106.490478515625Q167.125 105.850341796875 166.8526611328125 105.5274658203125Q166.580322265625 105.20458984375 166.05810546875 105.20458984375Q165.7099609375 105.20458984375 165.4713134765625 105.29443359375Q165.232666015625 105.38427734375 165.05859375 105.490966796875Q164.884521484375 105.59765625 164.7581787109375 105.6875Q164.6318359375 105.77734375 164.502685546875 105.77734375Q164.401611328125 105.77734375 164.32861328125 105.726806640625Q164.255615234375 105.67626953125 164.210693359375 105.59765625L164.031005859375 105.283203125Q164.48583984375 104.84521484375 165.0108642578125 104.6290283203125Q165.535888671875 104.412841796875 166.176025390625 104.412841796875Q166.636474609375 104.412841796875 166.995849609375 104.5616455078125Q167.355224609375 104.71044921875 167.5966796875 104.985595703125Q167.838134765625 105.2607421875 167.9644775390625 105.642578125Q168.0908203125 106.0244140625 168.0908203125 106.490478515625V110.0ZM165.59765625 109.3935546875Q165.8447265625 109.3935546875 166.052490234375 109.343017578125Q166.26025390625 109.29248046875 166.445556640625 109.1998291015625Q166.630859375 109.107177734375 166.7965087890625 108.9696044921875Q166.962158203125 108.83203125 167.125 108.66357421875V107.529296875Q166.468017578125 107.557373046875 166.007568359375 107.6387939453125Q165.547119140625 107.72021484375 165.2579345703125 107.85498046875Q164.96875 107.98974609375 164.839599609375 108.1722412109375Q164.71044921875 108.354736328125 164.71044921875 108.579345703125Q164.71044921875 108.792724609375 164.7806396484375 108.9471435546875Q164.850830078125 109.1015625 164.96875 109.1998291015625Q165.086669921875 109.298095703125 165.24951171875 109.3458251953125Q165.412353515625 109.3935546875 165.59765625 109.3935546875Z M170.488525390625 104.50830078125V108.006591796875Q170.488525390625 108.624267578125 170.7664794921875 108.9639892578125Q171.04443359375 109.3037109375 171.611572265625 109.3037109375Q172.03271484375 109.3037109375 172.3948974609375 109.1043701171875Q172.757080078125 108.905029296875 173.06591796875 108.556884765625V104.50830078125H174.05419921875V110.0H173.458984375Q173.35791015625 110.0 173.29052734375 109.9522705078125Q173.22314453125 109.904541015625 173.2119140625 109.7978515625L173.1220703125 109.2138671875Q172.768310546875 109.60693359375 172.3331298828125 109.8455810546875Q171.89794921875 110.084228515625 171.3251953125 110.084228515625Q170.8759765625 110.084228515625 170.5362548828125 109.9354248046875Q170.196533203125 109.78662109375 169.96630859375 109.5142822265625Q169.736083984375 109.241943359375 169.6181640625 108.8572998046875Q169.500244140625 108.47265625 169.500244140625 108.006591796875V104.50830078125Z M177.181884765625 110.084228515625Q176.54736328125 110.084228515625 176.204833984375 109.71923828125Q175.8623046875 109.354248046875 175.8623046875 108.6748046875V105.328125H175.2333984375Q175.149169921875 105.328125 175.0902099609375 105.27197265625Q175.03125 105.2158203125 175.03125 105.109130859375V104.716064453125L175.89599609375 104.603759765625L176.126220703125 102.91357421875Q176.137451171875 102.829345703125 176.1964111328125 102.77880859375Q176.25537109375 102.728271484375 176.34521484375 102.728271484375H176.8505859375V104.609375H178.361083984375V105.328125H176.8505859375V108.607421875Q176.8505859375 108.9443359375 177.0050048828125 109.11279296875Q177.159423828125 109.28125 177.406494140625 109.28125Q177.552490234375 109.28125 177.6563720703125 109.241943359375Q177.76025390625 109.20263671875 177.833251953125 109.152099609375Q177.90625 109.1015625 177.9595947265625 109.062255859375Q178.012939453125 109.02294921875 178.057861328125 109.02294921875Q178.1083984375 109.02294921875 178.1392822265625 109.04541015625Q178.170166015625 109.06787109375 178.1982421875 109.118408203125L178.490234375 109.590087890625Q178.237548828125 109.825927734375 177.89501953125 109.955078125Q177.552490234375 110.084228515625 177.181884765625 110.084228515625Z M179.495361328125 110.0V102.01513671875H180.483642578125V105.232666015625Q180.826171875 104.862060546875 181.2445068359375 104.64306640625Q181.662841796875 104.424072265625 182.213134765625 104.424072265625Q182.662353515625 104.424072265625 183.0020751953125 104.5728759765625Q183.341796875 104.7216796875 183.572021484375 104.9940185546875Q183.80224609375 105.266357421875 183.9173583984375 105.6510009765625Q184.032470703125 106.03564453125 184.032470703125 106.501708984375V110.0H183.044189453125V106.501708984375Q183.044189453125 105.8896484375 182.76904296875 105.547119140625Q182.493896484375 105.20458984375 181.9267578125 105.20458984375Q181.505615234375 105.20458984375 181.146240234375 105.40673828125Q180.786865234375 105.60888671875 180.483642578125 105.962646484375V110.0Z M187.738525390625 104.424072265625Q188.232666015625 104.424072265625 188.65380859375 104.5869140625Q189.074951171875 104.749755859375 189.3837890625 105.064208984375Q189.692626953125 105.378662109375 189.86669921875 105.83349609375Q190.040771484375 106.288330078125 190.040771484375 106.8779296875Q190.040771484375 107.108154296875 189.990234375 107.1839599609375Q189.939697265625 107.259765625 189.804931640625 107.259765625H186.132568359375Q186.143798828125 107.7763671875 186.27294921875 108.1610107421875Q186.402099609375 108.545654296875 186.6295166015625 108.79833984375Q186.85693359375 109.051025390625 187.17138671875 109.1773681640625Q187.48583984375 109.3037109375 187.873291015625 109.3037109375Q188.232666015625 109.3037109375 188.49658203125 109.2222900390625Q188.760498046875 109.140869140625 188.9486083984375 109.039794921875Q189.13671875 108.938720703125 189.265869140625 108.8572998046875Q189.39501953125 108.77587890625 189.490478515625 108.77587890625Q189.55224609375 108.77587890625 189.59716796875 108.8011474609375Q189.64208984375 108.826416015625 189.67578125 108.871337890625L189.95654296875 109.230712890625Q189.771240234375 109.44970703125 189.5213623046875 109.6097412109375Q189.271484375 109.769775390625 188.985107421875 109.8736572265625Q188.69873046875 109.9775390625 188.3927001953125 110.028076171875Q188.086669921875 110.07861328125 187.7890625 110.07861328125Q187.21630859375 110.07861328125 186.7333984375 109.8876953125Q186.25048828125 109.69677734375 185.8995361328125 109.3233642578125Q185.548583984375 108.949951171875 185.35205078125 108.4024658203125Q185.155517578125 107.85498046875 185.155517578125 107.141845703125Q185.155517578125 106.569091796875 185.3323974609375 106.0721435546875Q185.50927734375 105.5751953125 185.8433837890625 105.2073974609375Q186.177490234375 104.839599609375 186.6575927734375 104.6318359375Q187.1376953125 104.424072265625 187.738525390625 104.424072265625ZM187.75537109375 105.142822265625Q187.064697265625 105.142822265625 186.6632080078125 105.547119140625Q186.26171875 105.951416015625 186.16064453125 106.6533203125H189.153564453125Q189.153564453125 106.322021484375 189.05810546875 106.0440673828125Q188.962646484375 105.76611328125 188.782958984375 105.5667724609375Q188.603271484375 105.367431640625 188.3421630859375 105.255126953125Q188.0810546875 105.142822265625 187.75537109375 105.142822265625Z M191.242431640625 110.0V104.50830078125H191.83203125Q191.938720703125 104.50830078125 192.006103515625 104.5560302734375Q192.073486328125 104.603759765625 192.084716796875 104.71044921875L192.1689453125 105.29443359375Q192.522705078125 104.9013671875 192.960693359375 104.6627197265625Q193.398681640625 104.424072265625 193.971435546875 104.424072265625Q194.420654296875 104.424072265625 194.7603759765625 104.5728759765625Q195.10009765625 104.7216796875 195.330322265625 104.9940185546875Q195.560546875 105.266357421875 195.678466796875 105.6510009765625Q195.79638671875 106.03564453125 195.79638671875 106.501708984375V110.0H194.80810546875V106.501708984375Q194.80810546875 105.8896484375 194.5301513671875 105.547119140625Q194.252197265625 105.20458984375 193.68505859375 105.20458984375Q193.263916015625 105.20458984375 192.89892578125 105.4039306640625Q192.533935546875 105.603271484375 192.230712890625 105.95703125V110.0Z M198.83984375 110.084228515625Q198.205322265625 110.084228515625 197.86279296875 109.71923828125Q197.520263671875 109.354248046875 197.520263671875 108.6748046875V105.328125H196.891357421875Q196.80712890625 105.328125 196.7481689453125 105.27197265625Q196.689208984375 105.2158203125 196.689208984375 105.109130859375V104.716064453125L197.553955078125 104.603759765625L197.7841796875 102.91357421875Q197.79541015625 102.829345703125 197.8543701171875 102.77880859375Q197.913330078125 102.728271484375 198.003173828125 102.728271484375H198.508544921875V104.609375H200.01904296875V105.328125H198.508544921875V108.607421875Q198.508544921875 108.9443359375 198.6629638671875 109.11279296875Q198.8173828125 109.28125 199.064453125 109.28125Q199.21044921875 109.28125 199.3143310546875 109.241943359375Q199.418212890625 109.20263671875 199.4912109375 109.152099609375Q199.564208984375 109.1015625 199.6175537109375 109.062255859375Q199.6708984375 109.02294921875 199.7158203125 109.02294921875Q199.766357421875 109.02294921875 199.7972412109375 109.04541015625Q199.828125 109.06787109375 199.856201171875 109.118408203125L200.148193359375 109.590087890625Q199.8955078125 109.825927734375 199.552978515625 109.955078125Q199.21044921875 110.084228515625 198.83984375 110.084228515625Z M200.968017578125 110.0ZM202.1640625 104.50830078125V110.0H201.17578125V104.50830078125ZM202.35498046875 102.7900390625Q202.35498046875 102.930419921875 202.298828125 103.0567626953125Q202.24267578125 103.18310546875 202.1444091796875 103.2757568359375Q202.046142578125 103.368408203125 201.9197998046875 103.424560546875Q201.79345703125 103.480712890625 201.653076171875 103.480712890625Q201.5126953125 103.480712890625 201.38916015625 103.424560546875Q201.265625 103.368408203125 201.1729736328125 103.2757568359375Q201.080322265625 103.18310546875 201.024169921875 103.0567626953125Q200.968017578125 102.930419921875 200.968017578125 102.7900390625Q200.968017578125 102.64404296875 201.024169921875 102.5177001953125Q201.080322265625 102.391357421875 201.1729736328125 102.2958984375Q201.265625 102.200439453125 201.38916015625 102.144287109375Q201.5126953125 102.088134765625 201.653076171875 102.088134765625Q201.79345703125 102.088134765625 201.9197998046875 102.144287109375Q202.046142578125 102.200439453125 202.1444091796875 102.2958984375Q202.24267578125 102.391357421875 202.298828125 102.5177001953125Q202.35498046875 102.64404296875 202.35498046875 102.7900390625Z M208.23974609375 104.50830078125V111.85302734375H207.25146484375V109.197021484375Q206.908935546875 109.601318359375 206.470947265625 109.8399658203125Q206.032958984375 110.07861328125 205.471435546875 110.07861328125Q204.999755859375 110.07861328125 204.617919921875 109.8961181640625Q204.236083984375 109.713623046875 203.966552734375 109.35986328125Q203.697021484375 109.006103515625 203.551025390625 108.4810791015625Q203.405029296875 107.9560546875 203.405029296875 107.27099609375Q203.405029296875 106.66455078125 203.56787109375 106.1395263671875Q203.730712890625 105.614501953125 204.033935546875 105.232666015625Q204.337158203125 104.850830078125 204.775146484375 104.6318359375Q205.213134765625 104.412841796875 205.763427734375 104.412841796875Q206.296875 104.412841796875 206.6646728515625 104.6009521484375Q207.032470703125 104.7890625 207.31884765625 105.131591796875L207.391845703125 104.71044921875Q207.43115234375 104.50830078125 207.650146484375 104.50830078125ZM205.79150390625 109.286865234375Q206.257568359375 109.286865234375 206.605712890625 109.0706787109375Q206.953857421875 108.8544921875 207.25146484375 108.467041015625V105.81103515625Q206.998779296875 105.468505859375 206.6815185546875 105.3197021484375Q206.3642578125 105.1708984375 205.988037109375 105.1708984375Q205.235595703125 105.1708984375 204.8284912109375 105.715576171875Q204.42138671875 106.26025390625 204.42138671875 107.27099609375Q204.42138671875 107.804443359375 204.5140380859375 108.186279296875Q204.606689453125 108.568115234375 204.7835693359375 108.8123779296875Q204.96044921875 109.056640625 205.2159423828125 109.1717529296875Q205.471435546875 109.286865234375 205.79150390625 109.286865234375Z M210.7216796875 104.50830078125V108.006591796875Q210.7216796875 108.624267578125 210.9996337890625 108.9639892578125Q211.277587890625 109.3037109375 211.8447265625 109.3037109375Q212.265869140625 109.3037109375 212.6280517578125 109.1043701171875Q212.990234375 108.905029296875 213.299072265625 108.556884765625V104.50830078125H214.287353515625V110.0H213.692138671875Q213.591064453125 110.0 213.523681640625 109.9522705078125Q213.456298828125 109.904541015625 213.445068359375 109.7978515625L213.355224609375 109.2138671875Q213.00146484375 109.60693359375 212.5662841796875 109.8455810546875Q212.131103515625 110.084228515625 211.558349609375 110.084228515625Q211.109130859375 110.084228515625 210.7694091796875 109.9354248046875Q210.4296875 109.78662109375 210.199462890625 109.5142822265625Q209.96923828125 109.241943359375 209.851318359375 108.8572998046875Q209.7333984375 108.47265625 209.7333984375 108.006591796875V104.50830078125Z M218.07763671875 104.424072265625Q218.57177734375 104.424072265625 218.992919921875 104.5869140625Q219.4140625 104.749755859375 219.722900390625 105.064208984375Q220.03173828125 105.378662109375 220.205810546875 105.83349609375Q220.3798828125 106.288330078125 220.3798828125 106.8779296875Q220.3798828125 107.108154296875 220.329345703125 107.1839599609375Q220.27880859375 107.259765625 220.14404296875 107.259765625H216.4716796875Q216.48291015625 107.7763671875 216.612060546875 108.1610107421875Q216.7412109375 108.545654296875 216.9686279296875 108.79833984375Q217.196044921875 109.051025390625 217.510498046875 109.1773681640625Q217.824951171875 109.3037109375 218.21240234375 109.3037109375Q218.57177734375 109.3037109375 218.835693359375 109.2222900390625Q219.099609375 109.140869140625 219.2877197265625 109.039794921875Q219.475830078125 108.938720703125 219.60498046875 108.8572998046875Q219.734130859375 108.77587890625 219.82958984375 108.77587890625Q219.891357421875 108.77587890625 219.936279296875 108.8011474609375Q219.981201171875 108.826416015625 220.014892578125 108.871337890625L220.295654296875 109.230712890625Q220.1103515625 109.44970703125 219.8604736328125 109.6097412109375Q219.610595703125 109.769775390625 219.32421875 109.8736572265625Q219.037841796875 109.9775390625 218.7318115234375 110.028076171875Q218.42578125 110.07861328125 218.128173828125 110.07861328125Q217.555419921875 110.07861328125 217.072509765625 109.8876953125Q216.589599609375 109.69677734375 216.2386474609375 109.3233642578125Q215.8876953125 108.949951171875 215.691162109375 108.4024658203125Q215.49462890625 107.85498046875 215.49462890625 107.141845703125Q215.49462890625 106.569091796875 215.6715087890625 106.0721435546875Q215.848388671875 105.5751953125 216.1824951171875 105.2073974609375Q216.5166015625 104.839599609375 216.9967041015625 104.6318359375Q217.476806640625 104.424072265625 218.07763671875 104.424072265625ZM218.094482421875 105.142822265625Q217.40380859375 105.142822265625 217.0023193359375 105.547119140625Q216.600830078125 105.951416015625 216.499755859375 106.6533203125H219.49267578125Q219.49267578125 106.322021484375 219.397216796875 106.0440673828125Q219.3017578125 105.76611328125 219.1220703125 105.5667724609375Q218.9423828125 105.367431640625 218.6812744140625 105.255126953125Q218.420166015625 105.142822265625 218.094482421875 105.142822265625Z M221.58154296875 109.326171875Q221.58154296875 109.20263671875 221.6292724609375 109.09033203125Q221.677001953125 108.97802734375 221.76123046875 108.893798828125Q221.845458984375 108.8095703125 221.9661865234375 108.759033203125Q222.0869140625 108.70849609375 222.23291015625 108.70849609375Q222.4013671875 108.70849609375 222.5277099609375 108.770263671875Q222.654052734375 108.83203125 222.73828125 108.9359130859375Q222.822509765625 109.039794921875 222.8646240234375 109.1829833984375Q222.90673828125 109.326171875 222.90673828125 109.489013671875Q222.90673828125 109.73046875 222.8365478515625 109.994384765625Q222.766357421875 110.25830078125 222.6343994140625 110.5166015625Q222.50244140625 110.77490234375 222.3115234375 111.0191650390625Q222.12060546875 111.263427734375 221.87353515625 111.47119140625L221.705078125 111.31396484375Q221.632080078125 111.24658203125 221.632080078125 111.15673828125Q221.632080078125 111.08935546875 221.710693359375 111.0107421875Q221.76123046875 110.95458984375 221.845458984375 110.853515625Q221.9296875 110.75244140625 222.0167236328125 110.623291015625Q222.103759765625 110.494140625 222.1767578125 110.3369140625Q222.249755859375 110.1796875 222.283447265625 110.0H222.2216796875Q221.935302734375 110.0 221.7584228515625 109.80908203125Q221.58154296875 109.6181640625 221.58154296875 109.326171875Z  M228.078369140625 102.01513671875V110.0H227.090087890625V102.01513671875Z M230.599609375 102.234130859375V103.806396484375L230.504150390625 104.64306640625Q230.4873046875 104.817138671875 230.414306640625 104.9154052734375Q230.34130859375 105.013671875 230.167236328125 105.013671875Q230.021240234375 105.013671875 229.9398193359375 104.918212890625Q229.8583984375 104.82275390625 229.841552734375 104.64306640625L229.74609375 103.806396484375V102.234130859375Z M234.446044921875 104.424072265625Q234.940185546875 104.424072265625 235.361328125 104.5869140625Q235.782470703125 104.749755859375 236.09130859375 105.064208984375Q236.400146484375 105.378662109375 236.57421875 105.83349609375Q236.748291015625 106.288330078125 236.748291015625 106.8779296875Q236.748291015625 107.108154296875 236.69775390625 107.1839599609375Q236.647216796875 107.259765625 236.512451171875 107.259765625H232.840087890625Q232.851318359375 107.7763671875 232.98046875 108.1610107421875Q233.109619140625 108.545654296875 233.3370361328125 108.79833984375Q233.564453125 109.051025390625 233.87890625 109.1773681640625Q234.193359375 109.3037109375 234.580810546875 109.3037109375Q234.940185546875 109.3037109375 235.2041015625 109.2222900390625Q235.468017578125 109.140869140625 235.6561279296875 109.039794921875Q235.84423828125 108.938720703125 235.973388671875 108.8572998046875Q236.1025390625 108.77587890625 236.197998046875 108.77587890625Q236.259765625 108.77587890625 236.3046875 108.8011474609375Q236.349609375 108.826416015625 236.38330078125 108.871337890625L236.6640625 109.230712890625Q236.478759765625 109.44970703125 236.2288818359375 109.6097412109375Q235.97900390625 109.769775390625 235.692626953125 109.8736572265625Q235.40625 109.9775390625 235.1002197265625 110.028076171875Q234.794189453125 110.07861328125 234.49658203125 110.07861328125Q233.923828125 110.07861328125 233.44091796875 109.8876953125Q232.9580078125 109.69677734375 232.6070556640625 109.3233642578125Q232.256103515625 108.949951171875 232.0595703125 108.4024658203125Q231.863037109375 107.85498046875 231.863037109375 107.141845703125Q231.863037109375 106.569091796875 232.0399169921875 106.0721435546875Q232.216796875 105.5751953125 232.5509033203125 105.2073974609375Q232.885009765625 104.839599609375 233.3651123046875 104.6318359375Q233.84521484375 104.424072265625 234.446044921875 104.424072265625ZM234.462890625 105.142822265625Q233.772216796875 105.142822265625 233.3707275390625 105.547119140625Q232.96923828125 105.951416015625 232.8681640625 106.6533203125H235.861083984375Q235.861083984375 106.322021484375 235.765625 106.0440673828125Q235.670166015625 105.76611328125 235.490478515625 105.5667724609375Q235.310791015625 105.367431640625 235.0496826171875 105.255126953125Q234.78857421875 105.142822265625 234.462890625 105.142822265625Z M237.949951171875 110.0V104.50830078125H238.53955078125Q238.646240234375 104.50830078125 238.713623046875 104.5560302734375Q238.781005859375 104.603759765625 238.792236328125 104.71044921875L238.87646484375 105.29443359375Q239.230224609375 104.9013671875 239.668212890625 104.6627197265625Q240.106201171875 104.424072265625 240.678955078125 104.424072265625Q241.128173828125 104.424072265625 241.4678955078125 104.5728759765625Q241.8076171875 104.7216796875 242.037841796875 104.9940185546875Q242.26806640625 105.266357421875 242.385986328125 105.6510009765625Q242.50390625 106.03564453125 242.50390625 106.501708984375V110.0H241.515625V106.501708984375Q241.515625 105.8896484375 241.2376708984375 105.547119140625Q240.959716796875 105.20458984375 240.392578125 105.20458984375Q239.971435546875 105.20458984375 239.6064453125 105.4039306640625Q239.241455078125 105.603271484375 238.938232421875 105.95703125V110.0Z M245.54736328125 110.084228515625Q244.912841796875 110.084228515625 244.5703125 109.71923828125Q244.227783203125 109.354248046875 244.227783203125 108.6748046875V105.328125H243.598876953125Q243.5146484375 105.328125 243.4556884765625 105.27197265625Q243.396728515625 105.2158203125 243.396728515625 105.109130859375V104.716064453125L244.261474609375 104.603759765625L244.49169921875 102.91357421875Q244.5029296875 102.829345703125 244.5618896484375 102.77880859375Q244.620849609375 102.728271484375 244.710693359375 102.728271484375H245.216064453125V104.609375H246.7265625V105.328125H245.216064453125V108.607421875Q245.216064453125 108.9443359375 245.3704833984375 109.11279296875Q245.52490234375 109.28125 245.77197265625 109.28125Q245.91796875 109.28125 246.0218505859375 109.241943359375Q246.125732421875 109.20263671875 246.19873046875 109.152099609375Q246.271728515625 109.1015625 246.3250732421875 109.062255859375Q246.37841796875 109.02294921875 246.42333984375 109.02294921875Q246.473876953125 109.02294921875 246.5047607421875 109.04541015625Q246.53564453125 109.06787109375 246.563720703125 109.118408203125L246.855712890625 109.590087890625Q246.60302734375 109.825927734375 246.260498046875 109.955078125Q245.91796875 110.084228515625 245.54736328125 110.084228515625Z M247.79345703125 110.0V104.50830078125H248.360595703125Q248.517822265625 104.50830078125 248.5823974609375 104.570068359375Q248.64697265625 104.6318359375 248.658203125 104.77783203125L248.7255859375 105.58642578125Q248.978271484375 105.041748046875 249.348876953125 104.727294921875Q249.719482421875 104.412841796875 250.24169921875 104.412841796875Q250.415771484375 104.412841796875 250.5673828125 104.4493408203125Q250.718994140625 104.48583984375 250.842529296875 104.570068359375L250.763916015625 105.300048828125Q250.7470703125 105.4404296875 250.606689453125 105.4404296875Q250.528076171875 105.4404296875 250.3848876953125 105.4095458984375Q250.24169921875 105.378662109375 250.067626953125 105.378662109375Q249.81494140625 105.378662109375 249.6212158203125 105.4544677734375Q249.427490234375 105.5302734375 249.2730712890625 105.6790771484375Q249.11865234375 105.827880859375 249.000732421875 106.041259765625Q248.8828125 106.254638671875 248.78173828125 106.52978515625V110.0Z M251.48828125 110.0ZM254.0712890625 104.424072265625Q254.5654296875 104.424072265625 254.986572265625 104.5869140625Q255.40771484375 104.749755859375 255.716552734375 105.064208984375Q256.025390625 105.378662109375 256.199462890625 105.83349609375Q256.37353515625 106.288330078125 256.37353515625 106.8779296875Q256.37353515625 107.108154296875 256.322998046875 107.1839599609375Q256.2724609375 107.259765625 256.1376953125 107.259765625H252.46533203125Q252.4765625 107.7763671875 252.605712890625 108.1610107421875Q252.73486328125 108.545654296875 252.9622802734375 108.79833984375Q253.189697265625 109.051025390625 253.504150390625 109.1773681640625Q253.818603515625 109.3037109375 254.2060546875 109.3037109375Q254.5654296875 109.3037109375 254.829345703125 109.2222900390625Q255.09326171875 109.140869140625 255.2813720703125 109.039794921875Q255.469482421875 108.938720703125 255.5986328125 108.8572998046875Q255.727783203125 108.77587890625 255.8232421875 108.77587890625Q255.885009765625 108.77587890625 255.929931640625 108.8011474609375Q255.974853515625 108.826416015625 256.008544921875 108.871337890625L256.289306640625 109.230712890625Q256.10400390625 109.44970703125 255.8541259765625 109.6097412109375Q255.604248046875 109.769775390625 255.31787109375 109.8736572265625Q255.031494140625 109.9775390625 254.7254638671875 110.028076171875Q254.41943359375 110.07861328125 254.121826171875 110.07861328125Q253.549072265625 110.07861328125 253.066162109375 109.8876953125Q252.583251953125 109.69677734375 252.2322998046875 109.3233642578125Q251.88134765625 108.949951171875 251.684814453125 108.4024658203125Q251.48828125 107.85498046875 251.48828125 107.141845703125Q251.48828125 106.569091796875 251.6651611328125 106.0721435546875Q251.842041015625 105.5751953125 252.1761474609375 105.2073974609375Q252.51025390625 104.839599609375 252.9903564453125 104.6318359375Q253.470458984375 104.424072265625 254.0712890625 104.424072265625ZM254.088134765625 105.142822265625Q253.3974609375 105.142822265625 252.9959716796875 105.547119140625Q252.594482421875 105.951416015625 252.493408203125 106.6533203125H255.486328125Q255.486328125 106.322021484375 255.390869140625 106.0440673828125Q255.29541015625 105.76611328125 255.11572265625 105.5667724609375Q254.93603515625 105.367431640625 254.6749267578125 105.255126953125Q254.413818359375 105.142822265625 254.088134765625 105.142822265625ZM255.47509765625 102.144287109375 254.2060546875 103.54248046875Q254.12744140625 103.626708984375 254.0516357421875 103.660400390625Q253.975830078125 103.694091796875 253.863525390625 103.694091796875H253.27392578125L254.076904296875 102.3857421875Q254.14990234375 102.26220703125 254.23974609375 102.2032470703125Q254.32958984375 102.144287109375 254.50927734375 102.144287109375Z M259.793212890625 104.424072265625Q260.287353515625 104.424072265625 260.70849609375 104.5869140625Q261.129638671875 104.749755859375 261.4384765625 105.064208984375Q261.747314453125 105.378662109375 261.92138671875 105.83349609375Q262.095458984375 106.288330078125 262.095458984375 106.8779296875Q262.095458984375 107.108154296875 262.044921875 107.1839599609375Q261.994384765625 107.259765625 261.859619140625 107.259765625H258.187255859375Q258.198486328125 107.7763671875 258.32763671875 108.1610107421875Q258.456787109375 108.545654296875 258.6842041015625 108.79833984375Q258.91162109375 109.051025390625 259.22607421875 109.1773681640625Q259.54052734375 109.3037109375 259.927978515625 109.3037109375Q260.287353515625 109.3037109375 260.55126953125 109.2222900390625Q260.815185546875 109.140869140625 261.0032958984375 109.039794921875Q261.19140625 108.938720703125 261.320556640625 108.8572998046875Q261.44970703125 108.77587890625 261.545166015625 108.77587890625Q261.60693359375 108.77587890625 261.65185546875 108.8011474609375Q261.69677734375 108.826416015625 261.73046875 108.871337890625L262.01123046875 109.230712890625Q261.825927734375 109.44970703125 261.5760498046875 109.6097412109375Q261.326171875 109.769775390625 261.039794921875 109.8736572265625Q260.75341796875 109.9775390625 260.4473876953125 110.028076171875Q260.141357421875 110.07861328125 259.84375 110.07861328125Q259.27099609375 110.07861328125 258.7880859375 109.8876953125Q258.30517578125 109.69677734375 257.9542236328125 109.3233642578125Q257.603271484375 108.949951171875 257.40673828125 108.4024658203125Q257.210205078125 107.85498046875 257.210205078125 107.141845703125Q257.210205078125 106.569091796875 257.3870849609375 106.0721435546875Q257.56396484375 105.5751953125 257.8980712890625 105.2073974609375Q258.232177734375 104.839599609375 258.7122802734375 104.6318359375Q259.1923828125 104.424072265625 259.793212890625 104.424072265625ZM259.81005859375 105.142822265625Q259.119384765625 105.142822265625 258.7178955078125 105.547119140625Q258.31640625 105.951416015625 258.21533203125 106.6533203125H261.208251953125Q261.208251953125 106.322021484375 261.11279296875 106.0440673828125Q261.017333984375 105.76611328125 260.837646484375 105.5667724609375Q260.657958984375 105.367431640625 260.3968505859375 105.255126953125Q260.1357421875 105.142822265625 259.81005859375 105.142822265625Z  M268.923583984375 105.41796875Q268.856201171875 105.54150390625 268.721435546875 105.54150390625Q268.63720703125 105.54150390625 268.5389404296875 105.479736328125Q268.440673828125 105.41796875 268.3031005859375 105.3477783203125Q268.16552734375 105.277587890625 267.9774169921875 105.2158203125Q267.789306640625 105.154052734375 267.531005859375 105.154052734375Q267.31201171875 105.154052734375 267.137939453125 105.2158203125Q266.9638671875 105.277587890625 266.84033203125 105.38427734375Q266.716796875 105.490966796875 266.6494140625 105.6341552734375Q266.58203125 105.77734375 266.58203125 105.940185546875Q266.58203125 106.153564453125 266.6943359375 106.2939453125Q266.806640625 106.434326171875 266.991943359375 106.535400390625Q267.17724609375 106.636474609375 267.4158935546875 106.7178955078125Q267.654541015625 106.79931640625 267.901611328125 106.883544921875Q268.148681640625 106.9677734375 268.3873291015625 107.080078125Q268.6259765625 107.1923828125 268.811279296875 107.355224609375Q268.99658203125 107.51806640625 269.10888671875 107.7510986328125Q269.22119140625 107.984130859375 269.22119140625 108.3154296875Q269.22119140625 108.697265625 269.092041015625 109.0201416015625Q268.962890625 109.343017578125 268.7130126953125 109.578857421875Q268.463134765625 109.814697265625 268.0953369140625 109.949462890625Q267.7275390625 110.084228515625 267.250244140625 110.084228515625Q266.70556640625 110.084228515625 266.2591552734375 109.89892578125Q265.812744140625 109.713623046875 265.50390625 109.416015625L265.734130859375 109.04541015625Q265.779052734375 108.972412109375 265.8408203125 108.93310546875Q265.902587890625 108.893798828125 265.998046875 108.893798828125Q266.09912109375 108.893798828125 266.2001953125 108.9696044921875Q266.30126953125 109.04541015625 266.4444580078125 109.1380615234375Q266.587646484375 109.230712890625 266.789794921875 109.3065185546875Q266.991943359375 109.38232421875 267.295166015625 109.38232421875Q267.553466796875 109.38232421875 267.7415771484375 109.309326171875Q267.9296875 109.236328125 268.05322265625 109.1156005859375Q268.1767578125 108.994873046875 268.238525390625 108.83203125Q268.30029296875 108.669189453125 268.30029296875 108.489501953125Q268.30029296875 108.264892578125 268.1851806640625 108.1160888671875Q268.070068359375 107.96728515625 267.884765625 107.8634033203125Q267.699462890625 107.759521484375 267.4608154296875 107.680908203125Q267.22216796875 107.602294921875 266.9722900390625 107.5152587890625Q266.722412109375 107.42822265625 266.4837646484375 107.3187255859375Q266.2451171875 107.209228515625 266.059814453125 107.0379638671875Q265.87451171875 106.86669921875 265.7593994140625 106.61962890625Q265.644287109375 106.37255859375 265.644287109375 106.018798828125Q265.644287109375 105.69873046875 265.767822265625 105.4095458984375Q265.891357421875 105.120361328125 266.127197265625 104.9013671875Q266.363037109375 104.682373046875 266.711181640625 104.55322265625Q267.059326171875 104.424072265625 267.508544921875 104.424072265625Q268.01953125 104.424072265625 268.43505859375 104.592529296875Q268.8505859375 104.760986328125 269.142578125 105.064208984375Z M270.02978515625 110.0ZM272.61279296875 104.424072265625Q273.10693359375 104.424072265625 273.528076171875 104.5869140625Q273.94921875 104.749755859375 274.258056640625 105.064208984375Q274.56689453125 105.378662109375 274.740966796875 105.83349609375Q274.9150390625 106.288330078125 274.9150390625 106.8779296875Q274.9150390625 107.108154296875 274.864501953125 107.1839599609375Q274.81396484375 107.259765625 274.67919921875 107.259765625H271.0068359375Q271.01806640625 107.7763671875 271.147216796875 108.1610107421875Q271.2763671875 108.545654296875 271.5037841796875 108.79833984375Q271.731201171875 109.051025390625 272.045654296875 109.1773681640625Q272.360107421875 109.3037109375 272.74755859375 109.3037109375Q273.10693359375 109.3037109375 273.370849609375 109.2222900390625Q273.634765625 109.140869140625 273.8228759765625 109.039794921875Q274.010986328125 108.938720703125 274.14013671875 108.8572998046875Q274.269287109375 108.77587890625 274.36474609375 108.77587890625Q274.426513671875 108.77587890625 274.471435546875 108.8011474609375Q274.516357421875 108.826416015625 274.550048828125 108.871337890625L274.830810546875 109.230712890625Q274.6455078125 109.44970703125 274.3956298828125 109.6097412109375Q274.145751953125 109.769775390625 273.859375 109.8736572265625Q273.572998046875 109.9775390625 273.2669677734375 110.028076171875Q272.9609375 110.07861328125 272.663330078125 110.07861328125Q272.090576171875 110.07861328125 271.607666015625 109.8876953125Q271.124755859375 109.69677734375 270.7738037109375 109.3233642578125Q270.4228515625 108.949951171875 270.226318359375 108.4024658203125Q270.02978515625 107.85498046875 270.02978515625 107.141845703125Q270.02978515625 106.569091796875 270.2066650390625 106.0721435546875Q270.383544921875 105.5751953125 270.7176513671875 105.2073974609375Q271.0517578125 104.839599609375 271.5318603515625 104.6318359375Q272.011962890625 104.424072265625 272.61279296875 104.424072265625ZM272.629638671875 105.142822265625Q271.93896484375 105.142822265625 271.5374755859375 105.547119140625Q271.135986328125 105.951416015625 271.034912109375 106.6533203125H274.02783203125Q274.02783203125 106.322021484375 273.932373046875 106.0440673828125Q273.8369140625 105.76611328125 273.6572265625 105.5667724609375Q273.4775390625 105.367431640625 273.2164306640625 105.255126953125Q272.955322265625 105.142822265625 272.629638671875 105.142822265625ZM274.0166015625 102.144287109375 272.74755859375 103.54248046875Q272.6689453125 103.626708984375 272.5931396484375 103.660400390625Q272.517333984375 103.694091796875 272.405029296875 103.694091796875H271.8154296875L272.618408203125 102.3857421875Q272.69140625 102.26220703125 272.78125 102.2032470703125Q272.87109375 102.144287109375 273.05078125 102.144287109375Z M279.648681640625 105.49658203125Q279.603759765625 105.558349609375 279.5616455078125 105.5892333984375Q279.51953125 105.6201171875 279.44091796875 105.6201171875Q279.356689453125 105.6201171875 279.266845703125 105.552734375Q279.177001953125 105.4853515625 279.042236328125 105.4039306640625Q278.907470703125 105.322509765625 278.7137451171875 105.255126953125Q278.52001953125 105.187744140625 278.2392578125 105.187744140625Q277.86865234375 105.187744140625 277.5850830078125 105.3309326171875Q277.301513671875 105.47412109375 277.1134033203125 105.7408447265625Q276.92529296875 106.007568359375 276.8270263671875 106.389404296875Q276.728759765625 106.771240234375 276.728759765625 107.24853515625Q276.728759765625 107.74267578125 276.8326416015625 108.1273193359375Q276.9365234375 108.511962890625 277.12744140625 108.77587890625Q277.318359375 109.039794921875 277.587890625 109.1773681640625Q277.857421875 109.31494140625 278.1943359375 109.31494140625Q278.52001953125 109.31494140625 278.727783203125 109.230712890625Q278.935546875 109.146484375 279.075927734375 109.04541015625Q279.21630859375 108.9443359375 279.3089599609375 108.860107421875Q279.401611328125 108.77587890625 279.502685546875 108.77587890625Q279.614990234375 108.77587890625 279.682373046875 108.871337890625L279.96875 109.230712890625Q279.7890625 109.44970703125 279.570068359375 109.6097412109375Q279.35107421875 109.769775390625 279.098388671875 109.8736572265625Q278.845703125 109.9775390625 278.5733642578125 110.028076171875Q278.301025390625 110.07861328125 278.020263671875 110.07861328125Q277.537353515625 110.07861328125 277.1162109375 109.8876953125Q276.695068359375 109.69677734375 276.3834228515625 109.3345947265625Q276.07177734375 108.972412109375 275.8948974609375 108.4473876953125Q275.718017578125 107.92236328125 275.718017578125 107.24853515625Q275.718017578125 106.636474609375 275.880859375 106.1170654296875Q276.043701171875 105.59765625 276.3553466796875 105.221435546875Q276.6669921875 104.84521484375 277.1246337890625 104.6346435546875Q277.582275390625 104.424072265625 278.177490234375 104.424072265625Q278.739013671875 104.424072265625 279.16015625 104.6121826171875Q279.581298828125 104.80029296875 279.906982421875 105.13720703125Z M281.883544921875 104.50830078125V108.006591796875Q281.883544921875 108.624267578125 282.1614990234375 108.9639892578125Q282.439453125 109.3037109375 283.006591796875 109.3037109375Q283.427734375 109.3037109375 283.7899169921875 109.1043701171875Q284.152099609375 108.905029296875 284.4609375 108.556884765625V104.50830078125H285.44921875V110.0H284.85400390625Q284.7529296875 110.0 284.685546875 109.9522705078125Q284.6181640625 109.904541015625 284.60693359375 109.7978515625L284.51708984375 109.2138671875Q284.163330078125 109.60693359375 283.7281494140625 109.8455810546875Q283.29296875 110.084228515625 282.72021484375 110.084228515625Q282.27099609375 110.084228515625 281.9312744140625 109.9354248046875Q281.591552734375 109.78662109375 281.361328125 109.5142822265625Q281.131103515625 109.241943359375 281.01318359375 108.8572998046875Q280.895263671875 108.47265625 280.895263671875 108.006591796875V104.50830078125Z M286.970947265625 110.0V104.50830078125H287.5380859375Q287.6953125 104.50830078125 287.7598876953125 104.570068359375Q287.824462890625 104.6318359375 287.835693359375 104.77783203125L287.903076171875 105.58642578125Q288.15576171875 105.041748046875 288.5263671875 104.727294921875Q288.89697265625 104.412841796875 289.419189453125 104.412841796875Q289.59326171875 104.412841796875 289.744873046875 104.4493408203125Q289.896484375 104.48583984375 290.02001953125 104.570068359375L289.94140625 105.300048828125Q289.924560546875 105.4404296875 289.7841796875 105.4404296875Q289.70556640625 105.4404296875 289.5623779296875 105.4095458984375Q289.419189453125 105.378662109375 289.2451171875 105.378662109375Q288.992431640625 105.378662109375 288.7987060546875 105.4544677734375Q288.60498046875 105.5302734375 288.4505615234375 105.6790771484375Q288.296142578125 105.827880859375 288.17822265625 106.041259765625Q288.060302734375 106.254638671875 287.959228515625 106.52978515625V110.0Z M290.8623046875 110.0ZM292.058349609375 104.50830078125V110.0H291.070068359375V104.50830078125ZM292.249267578125 102.7900390625Q292.249267578125 102.930419921875 292.193115234375 103.0567626953125Q292.136962890625 103.18310546875 292.0386962890625 103.2757568359375Q291.9404296875 103.368408203125 291.8140869140625 103.424560546875Q291.687744140625 103.480712890625 291.54736328125 103.480712890625Q291.406982421875 103.480712890625 291.283447265625 103.424560546875Q291.159912109375 103.368408203125 291.0672607421875 103.2757568359375Q290.974609375 103.18310546875 290.91845703125 103.0567626953125Q290.8623046875 102.930419921875 290.8623046875 102.7900390625Q290.8623046875 102.64404296875 290.91845703125 102.5177001953125Q290.974609375 102.391357421875 291.0672607421875 102.2958984375Q291.159912109375 102.200439453125 291.283447265625 102.144287109375Q291.406982421875 102.088134765625 291.54736328125 102.088134765625Q291.687744140625 102.088134765625 291.8140869140625 102.144287109375Q291.9404296875 102.200439453125 292.0386962890625 102.2958984375Q292.136962890625 102.391357421875 292.193115234375 102.5177001953125Q292.249267578125 102.64404296875 292.249267578125 102.7900390625Z M296.696533203125 105.41796875Q296.629150390625 105.54150390625 296.494384765625 105.54150390625Q296.41015625 105.54150390625 296.3118896484375 105.479736328125Q296.213623046875 105.41796875 296.0760498046875 105.3477783203125Q295.9384765625 105.277587890625 295.7503662109375 105.2158203125Q295.562255859375 105.154052734375 295.303955078125 105.154052734375Q295.0849609375 105.154052734375 294.910888671875 105.2158203125Q294.73681640625 105.277587890625 294.61328125 105.38427734375Q294.48974609375 105.490966796875 294.42236328125 105.6341552734375Q294.35498046875 105.77734375 294.35498046875 105.940185546875Q294.35498046875 106.153564453125 294.46728515625 106.2939453125Q294.57958984375 106.434326171875 294.764892578125 106.535400390625Q294.9501953125 106.636474609375 295.1888427734375 106.7178955078125Q295.427490234375 106.79931640625 295.674560546875 106.883544921875Q295.921630859375 106.9677734375 296.1602783203125 107.080078125Q296.39892578125 107.1923828125 296.584228515625 107.355224609375Q296.76953125 107.51806640625 296.8818359375 107.7510986328125Q296.994140625 107.984130859375 296.994140625 108.3154296875Q296.994140625 108.697265625 296.864990234375 109.0201416015625Q296.73583984375 109.343017578125 296.4859619140625 109.578857421875Q296.236083984375 109.814697265625 295.8682861328125 109.949462890625Q295.50048828125 110.084228515625 295.023193359375 110.084228515625Q294.478515625 110.084228515625 294.0321044921875 109.89892578125Q293.585693359375 109.713623046875 293.27685546875 109.416015625L293.507080078125 109.04541015625Q293.552001953125 108.972412109375 293.61376953125 108.93310546875Q293.675537109375 108.893798828125 293.77099609375 108.893798828125Q293.8720703125 108.893798828125 293.97314453125 108.9696044921875Q294.07421875 109.04541015625 294.2174072265625 109.1380615234375Q294.360595703125 109.230712890625 294.562744140625 109.3065185546875Q294.764892578125 109.38232421875 295.068115234375 109.38232421875Q295.326416015625 109.38232421875 295.5145263671875 109.309326171875Q295.70263671875 109.236328125 295.826171875 109.1156005859375Q295.94970703125 108.994873046875 296.011474609375 108.83203125Q296.0732421875 108.669189453125 296.0732421875 108.489501953125Q296.0732421875 108.264892578125 295.9581298828125 108.1160888671875Q295.843017578125 107.96728515625 295.65771484375 107.8634033203125Q295.472412109375 107.759521484375 295.2337646484375 107.680908203125Q294.9951171875 107.602294921875 294.7452392578125 107.5152587890625Q294.495361328125 107.42822265625 294.2567138671875 107.3187255859375Q294.01806640625 107.209228515625 293.832763671875 107.0379638671875Q293.6474609375 106.86669921875 293.5323486328125 106.61962890625Q293.417236328125 106.37255859375 293.417236328125 106.018798828125Q293.417236328125 105.69873046875 293.540771484375 105.4095458984375Q293.664306640625 105.120361328125 293.900146484375 104.9013671875Q294.135986328125 104.682373046875 294.484130859375 104.55322265625Q294.832275390625 104.424072265625 295.281494140625 104.424072265625Q295.79248046875 104.424072265625 296.2080078125 104.592529296875Q296.62353515625 104.760986328125 296.91552734375 105.064208984375Z M297.802734375 110.0ZM300.3857421875 104.424072265625Q300.8798828125 104.424072265625 301.301025390625 104.5869140625Q301.72216796875 104.749755859375 302.031005859375 105.064208984375Q302.33984375 105.378662109375 302.513916015625 105.83349609375Q302.68798828125 106.288330078125 302.68798828125 106.8779296875Q302.68798828125 107.108154296875 302.637451171875 107.1839599609375Q302.5869140625 107.259765625 302.4521484375 107.259765625H298.77978515625Q298.791015625 107.7763671875 298.920166015625 108.1610107421875Q299.04931640625 108.545654296875 299.2767333984375 108.79833984375Q299.504150390625 109.051025390625 299.818603515625 109.1773681640625Q300.133056640625 109.3037109375 300.5205078125 109.3037109375Q300.8798828125 109.3037109375 301.143798828125 109.2222900390625Q301.40771484375 109.140869140625 301.5958251953125 109.039794921875Q301.783935546875 108.938720703125 301.9130859375 108.8572998046875Q302.042236328125 108.77587890625 302.1376953125 108.77587890625Q302.199462890625 108.77587890625 302.244384765625 108.8011474609375Q302.289306640625 108.826416015625 302.322998046875 108.871337890625L302.603759765625 109.230712890625Q302.41845703125 109.44970703125 302.1685791015625 109.6097412109375Q301.918701171875 109.769775390625 301.63232421875 109.8736572265625Q301.345947265625 109.9775390625 301.0399169921875 110.028076171875Q300.73388671875 110.07861328125 300.436279296875 110.07861328125Q299.863525390625 110.07861328125 299.380615234375 109.8876953125Q298.897705078125 109.69677734375 298.5467529296875 109.3233642578125Q298.19580078125 108.949951171875 297.999267578125 108.4024658203125Q297.802734375 107.85498046875 297.802734375 107.141845703125Q297.802734375 106.569091796875 297.9796142578125 106.0721435546875Q298.156494140625 105.5751953125 298.4906005859375 105.2073974609375Q298.82470703125 104.839599609375 299.3048095703125 104.6318359375Q299.784912109375 104.424072265625 300.3857421875 104.424072265625ZM300.402587890625 105.142822265625Q299.7119140625 105.142822265625 299.3104248046875 105.547119140625Q298.908935546875 105.951416015625 298.807861328125 106.6533203125H301.80078125Q301.80078125 106.322021484375 301.705322265625 106.0440673828125Q301.60986328125 105.76611328125 301.43017578125 105.5667724609375Q301.25048828125 105.367431640625 300.9893798828125 105.255126953125Q300.728271484375 105.142822265625 300.402587890625 105.142822265625ZM301.78955078125 102.144287109375 300.5205078125 103.54248046875Q300.44189453125 103.626708984375 300.3660888671875 103.660400390625Q300.290283203125 103.694091796875 300.177978515625 103.694091796875H299.58837890625L300.391357421875 102.3857421875Q300.46435546875 102.26220703125 300.55419921875 102.2032470703125Q300.64404296875 102.144287109375 300.82373046875 102.144287109375Z M306.107666015625 104.424072265625Q306.601806640625 104.424072265625 307.02294921875 104.5869140625Q307.444091796875 104.749755859375 307.7529296875 105.064208984375Q308.061767578125 105.378662109375 308.23583984375 105.83349609375Q308.409912109375 106.288330078125 308.409912109375 106.8779296875Q308.409912109375 107.108154296875 308.359375 107.1839599609375Q308.308837890625 107.259765625 308.174072265625 107.259765625H304.501708984375Q304.512939453125 107.7763671875 304.64208984375 108.1610107421875Q304.771240234375 108.545654296875 304.9986572265625 108.79833984375Q305.22607421875 109.051025390625 305.54052734375 109.1773681640625Q305.85498046875 109.3037109375 306.242431640625 109.3037109375Q306.601806640625 109.3037109375 306.86572265625 109.2222900390625Q307.129638671875 109.140869140625 307.3177490234375 109.039794921875Q307.505859375 108.938720703125 307.635009765625 108.8572998046875Q307.76416015625 108.77587890625 307.859619140625 108.77587890625Q307.92138671875 108.77587890625 307.96630859375 108.8011474609375Q308.01123046875 108.826416015625 308.044921875 108.871337890625L308.32568359375 109.230712890625Q308.140380859375 109.44970703125 307.8905029296875 109.6097412109375Q307.640625 109.769775390625 307.354248046875 109.8736572265625Q307.06787109375 109.9775390625 306.7618408203125 110.028076171875Q306.455810546875 110.07861328125 306.158203125 110.07861328125Q305.58544921875 110.07861328125 305.1025390625 109.8876953125Q304.61962890625 109.69677734375 304.2686767578125 109.3233642578125Q303.917724609375 108.949951171875 303.72119140625 108.4024658203125Q303.524658203125 107.85498046875 303.524658203125 107.141845703125Q303.524658203125 106.569091796875 303.7015380859375 106.0721435546875Q303.87841796875 105.5751953125 304.2125244140625 105.2073974609375Q304.546630859375 104.839599609375 305.0267333984375 104.6318359375Q305.5068359375 104.424072265625 306.107666015625 104.424072265625ZM306.12451171875 105.142822265625Q305.433837890625 105.142822265625 305.0323486328125 105.547119140625Q304.630859375 105.951416015625 304.52978515625 106.6533203125H307.522705078125Q307.522705078125 106.322021484375 307.42724609375 106.0440673828125Q307.331787109375 105.76611328125 307.152099609375 105.5667724609375Q306.972412109375 105.367431640625 306.7113037109375 105.255126953125Q306.4501953125 105.142822265625 306.12451171875 105.142822265625Z M309.577880859375 110.0ZM310.96484375 109.399169921875Q310.96484375 109.53955078125 310.90869140625 109.6658935546875Q310.8525390625 109.792236328125 310.7542724609375 109.8848876953125Q310.656005859375 109.9775390625 310.5296630859375 110.03369140625Q310.4033203125 110.08984375 310.262939453125 110.08984375Q310.12255859375 110.08984375 309.9990234375 110.03369140625Q309.87548828125 109.9775390625 309.7828369140625 109.8848876953125Q309.690185546875 109.792236328125 309.634033203125 109.6658935546875Q309.577880859375 109.53955078125 309.577880859375 109.399169921875Q309.577880859375 109.253173828125 309.634033203125 109.1268310546875Q309.690185546875 109.00048828125 309.7828369140625 108.905029296875Q309.87548828125 108.8095703125 309.9990234375 108.75341796875Q310.12255859375 108.697265625 310.262939453125 108.697265625Q310.4033203125 108.697265625 310.5296630859375 108.75341796875Q310.656005859375 108.8095703125 310.7542724609375 108.905029296875Q310.8525390625 109.00048828125 310.90869140625 109.1268310546875Q310.96484375 109.253173828125 310.96484375 109.399169921875Z" fill="#050A24"/>
</svg>
